<?xml version="1.0" encoding="UTF-8"?>
<svg version="1.1" xmlns="http://www.w3.org/2000/svg" width="1920" height="1920">
<path d="M0 0 C633.6 0 1267.2 0 1920 0 C1920 633.6 1920 1267.2 1920 1920 C1286.4 1920 652.8 1920 0 1920 C0 1286.4 0 652.8 0 0 Z " fill="#D1D2D4" transform="translate(0,0)"/>
<path d="M0 0 C74.58 0 149.16 0 226 0 C226 10.89 226 21.78 226 33 C162.31 33 98.62 33 33 33 C33 43.56 33 54.12 33 65 C43.56 65 54.12 65 65 65 C65 75.56 65 86.12 65 97 C75.56 97 86.12 97 97 97 C97 107.89 97 118.78 97 130 C107.56 130 118.12 130 129 130 C129 140.56 129 151.12 129 162 C139.56 162 150.12 162 161 162 C161 172.56 161 183.12 161 194 C171.89 194 182.78 194 194 194 C194 215.12 194 236.24 194 258 C215.12 258 236.24 258 258 258 C258 236.88 258 215.76 258 194 C268.56 194 279.12 194 290 194 C290 236.57 290 279.14 290 323 C311.45 323 332.9 323 355 323 C355 312.44 355 301.88 355 291 C365.89 291 376.78 291 388 291 C388 280.44 388 269.88 388 259 C398.56 259 409.12 259 420 259 C420 248.44 420 237.88 420 227 C430.56 227 441.12 227 452 227 C452 216.11 452 205.22 452 194 C473.12 194 494.24 194 516 194 C516 183.44 516 172.88 516 162 C537.45 162 558.9 162 581 162 C581 119.43 581 76.86 581 33 C591.56 33 602.12 33 613 33 C613 96.69 613 160.38 613 226 C623.56 226 634.12 226 645 226 C645 258.01 645 290.02 645 323 C634.44 323 623.88 323 613 323 C613 365.57 613 408.14 613 452 C623.89 452 634.78 452 646 452 C646 462.56 646 473.12 646 484 C656.56 484 667.12 484 678 484 C678 505.45 678 526.9 678 549 C688.56 549 699.12 549 710 549 C710 613.02 710 677.04 710 743 C699.44 743 688.88 743 678 743 C678 753.56 678 764.12 678 775 C667.44 775 656.88 775 646 775 C646 785.56 646 796.12 646 807 C624.55 807 603.1 807 581 807 C581 817.56 581 828.12 581 839 C559.55 839 538.1 839 516 839 C516 849.89 516 860.78 516 872 C484.32 872 452.64 872 420 872 C420 882.56 420 893.12 420 904 C291.96 904 163.92 904 32 904 C32 893.44 32 882.88 32 872 C0.32 872 -31.36 872 -64 872 C-64 861.11 -64 850.22 -64 839 C-85.45 839 -106.9 839 -129 839 C-129 828.44 -129 817.88 -129 807 C-150.12 807 -171.24 807 -193 807 C-193 796.44 -193 785.88 -193 775 C-203.89 775 -214.78 775 -226 775 C-226 764.44 -226 753.88 -226 743 C-236.56 743 -247.12 743 -258 743 C-258 678.65 -258 614.3 -258 548 C-247.44 548 -236.88 548 -226 548 C-226 526.88 -226 505.76 -226 484 C-215.11 484 -204.22 484 -193 484 C-193 473.44 -193 462.88 -193 452 C-182.44 452 -171.88 452 -161 452 C-161 441.44 -161 430.88 -161 420 C-150.44 420 -139.88 420 -129 420 C-129 409.11 -129 398.22 -129 387 C-118.44 387 -107.88 387 -97 387 C-97 365.88 -97 344.76 -97 323 C-107.56 323 -118.12 323 -129 323 C-129 312.44 -129 301.88 -129 291 C-150.12 291 -171.24 291 -193 291 C-193 237.87 -193 184.74 -193 130 C-182.44 130 -171.88 130 -161 130 C-161 140.56 -161 151.12 -161 162 C-150.44 162 -139.88 162 -129 162 C-129 172.56 -129 183.12 -129 194 C-107.88 194 -86.76 194 -65 194 C-65 204.56 -65 215.12 -65 226 C-43.55 226 -22.1 226 0 226 C0 236.89 0 247.78 0 259 C21.12 259 42.24 259 64 259 C64 269.56 64 280.12 64 291 C74.89 291 85.78 291 97 291 C97 301.56 97 312.12 97 323 C118.12 323 139.24 323 161 323 C161 312.44 161 301.88 161 291 C171.89 291 182.78 291 194 291 C194 280.44 194 269.88 194 259 C183.44 259 172.88 259 162 259 C162 248.11 162 237.22 162 226 C151.11 226 140.22 226 129 226 C129 215.44 129 204.88 129 194 C118.44 194 107.88 194 97 194 C97 183.44 97 172.88 97 162 C86.44 162 75.88 162 65 162 C65 151.11 65 140.22 65 129 C43.55 129 22.1 129 0 129 C0 118.44 0 107.88 0 97 C-32.01 97 -64.02 97 -97 97 C-97 107.56 -97 118.12 -97 129 C-118.12 129 -139.24 129 -161 129 C-161 118.44 -161 107.88 -161 97 C-150.44 97 -139.88 97 -129 97 C-129 86.44 -129 75.88 -129 65 C-96.99 65 -64.98 65 -32 65 C-32 54.44 -32 43.88 -32 33 C-21.44 33 -10.88 33 0 33 C0 22.11 0 11.22 0 0 Z " fill="#EFD79C" transform="translate(732,531)"/>
<path d="M0 0 C74.58 0 149.16 0 226 0 C226 10.89 226 21.78 226 33 C162.31 33 98.62 33 33 33 C33 43.56 33 54.12 33 65 C43.56 65 54.12 65 65 65 C65 75.56 65 86.12 65 97 C75.56 97 86.12 97 97 97 C97 107.89 97 118.78 97 130 C107.56 130 118.12 130 129 130 C129 140.56 129 151.12 129 162 C139.56 162 150.12 162 161 162 C161 172.56 161 183.12 161 194 C171.89 194 182.78 194 194 194 C194 215.12 194 236.24 194 258 C215.12 258 236.24 258 258 258 C258 236.88 258 215.76 258 194 C268.56 194 279.12 194 290 194 C290 236.57 290 279.14 290 323 C311.45 323 332.9 323 355 323 C355 312.44 355 301.88 355 291 C365.89 291 376.78 291 388 291 C388 280.44 388 269.88 388 259 C398.56 259 409.12 259 420 259 C420 248.44 420 237.88 420 227 C430.56 227 441.12 227 452 227 C452 216.11 452 205.22 452 194 C473.12 194 494.24 194 516 194 C516 183.44 516 172.88 516 162 C537.45 162 558.9 162 581 162 C581 119.43 581 76.86 581 33 C591.56 33 602.12 33 613 33 C613 96.69 613 160.38 613 226 C623.56 226 634.12 226 645 226 C645 258.01 645 290.02 645 323 C634.44 323 623.88 323 613 323 C613 365.57 613 408.14 613 452 C538.42 452 463.84 452 387 452 C387 462.56 387 473.12 387 484 C365.88 484 344.76 484 323 484 C323 494.89 323 505.78 323 517 C344.12 517 365.24 517 387 517 C387 527.56 387 538.12 387 549 C376.44 549 365.88 549 355 549 C355 581.01 355 613.02 355 646 C376.12 646 397.24 646 419 646 C419 656.56 419 667.12 419 678 C429.56 678 440.12 678 451 678 C451 688.56 451 699.12 451 710 C447.58248347 711.13917218 444.96512063 711.11338481 441.36328125 711.09765625 C440.06455078 711.09443359 438.76582031 711.09121094 437.42773438 711.08789062 C436.05598892 711.07953531 434.68424413 711.07107037 433.3125 711.0625 C431.92903805 711.05748335 430.54557437 711.05292073 429.16210938 711.04882812 C425.77469605 711.03702529 422.38736967 711.02056019 419 711 C419.00523682 711.90355225 419.01047363 712.80710449 419.01586914 713.73803711 C419.03287686 717.07951489 419.04543333 720.42094692 419.05493164 723.76245117 C419.05997101 725.21070073 419.06680253 726.65894517 419.07543945 728.10717773 C419.08752247 730.18474588 419.09323211 732.26224697 419.09765625 734.33984375 C419.10289307 735.59144287 419.10812988 736.84304199 419.11352539 738.13256836 C419 741 419 741 418 742 C415.78144736 742.08783542 413.56011504 742.10694609 411.33984375 742.09765625 C410.12417725 742.09515869 408.90851074 742.09266113 407.65600586 742.09008789 C405.32034546 742.07643188 405.32034546 742.07643188 402.9375 742.0625 C398.008125 742.041875 393.07875 742.02125 388 742 C387.67 731.11 387.34 720.22 387 709 C376.44 709 365.88 709 355 709 C355 720.22 355 731.44 355 743 C376.12 743 397.24 743 419 743 C419 753.56 419 764.12 419 775 C397.88 775 376.76 775 355 775 C355 796.12 355 817.24 355 839 C344.44 839 333.88 839 323 839 C323 817.88 323 796.76 323 775 C301.55 775 280.1 775 258 775 C258 764.11 258 753.22 258 742 C279.45 742 300.9 742 323 742 C323 720.88 323 699.76 323 678 C301.55 678 280.1 678 258 678 C258 667.44 258 656.88 258 646 C247.44 646 236.88 646 226 646 C226 613.99 226 581.98 226 549 C236.56 549 247.12 549 258 549 C258 538.11 258 527.22 258 516 C268.56 516 279.12 516 290 516 C290 505.44 290 494.88 290 484 C215.75 484 141.5 484 65 484 C65 473.44 65 462.88 65 452 C32.99 452 0.98 452 -32 452 C-32 441.44 -32 430.88 -32 420 C-64.01 420 -96.02 420 -129 420 C-129 409.11 -129 398.22 -129 387 C-118.44 387 -107.88 387 -97 387 C-97 365.88 -97 344.76 -97 323 C-107.56 323 -118.12 323 -129 323 C-129 312.44 -129 301.88 -129 291 C-150.12 291 -171.24 291 -193 291 C-193 237.87 -193 184.74 -193 130 C-182.44 130 -171.88 130 -161 130 C-161 140.56 -161 151.12 -161 162 C-150.44 162 -139.88 162 -129 162 C-129 172.56 -129 183.12 -129 194 C-107.88 194 -86.76 194 -65 194 C-65 204.56 -65 215.12 -65 226 C-43.55 226 -22.1 226 0 226 C0 236.89 0 247.78 0 259 C21.12 259 42.24 259 64 259 C64 269.56 64 280.12 64 291 C74.89 291 85.78 291 97 291 C97 301.56 97 312.12 97 323 C118.12 323 139.24 323 161 323 C161 312.44 161 301.88 161 291 C171.89 291 182.78 291 194 291 C194 280.44 194 269.88 194 259 C183.44 259 172.88 259 162 259 C162 248.11 162 237.22 162 226 C151.11 226 140.22 226 129 226 C129 215.44 129 204.88 129 194 C118.44 194 107.88 194 97 194 C97 183.44 97 172.88 97 162 C86.44 162 75.88 162 65 162 C65 151.11 65 140.22 65 129 C43.55 129 22.1 129 0 129 C0 118.44 0 107.88 0 97 C-32.01 97 -64.02 97 -97 97 C-97 107.56 -97 118.12 -97 129 C-118.12 129 -139.24 129 -161 129 C-161 118.44 -161 107.88 -161 97 C-150.44 97 -139.88 97 -129 97 C-129 86.44 -129 75.88 -129 65 C-96.99 65 -64.98 65 -32 65 C-32 54.44 -32 43.88 -32 33 C-21.44 33 -10.88 33 0 33 C0 22.11 0 11.22 0 0 Z " fill="#6D5555" transform="translate(732,531)"/>
<path d="M0 0 C42.57 0 85.14 0 129 0 C129 10.56 129 21.12 129 32 C161.01 32 193.02 32 226 32 C226 42.56 226 53.12 226 64 C300.25 64 374.5 64 451 64 C451 64.33 451 64.66 451 65 C419.32 65 387.64 65 355 65 C355 75.56 355 86.12 355 97 C333.88 97 312.76 97 291 97 C291 107.56 291 118.12 291 129 C280.11 129 269.22 129 258 129 C258 139.56 258 150.12 258 161 C247.44 161 236.88 161 226 161 C226 203.57 226 246.14 226 290 C236.56 290 247.12 290 258 290 C258 311.12 258 332.24 258 354 C268.56 354 279.12 354 290 354 C290 364.89 290 375.78 290 387 C300.89 387 311.78 387 323 387 C323 397.56 323 408.12 323 419 C333.56 419 344.12 419 355 419 C355 429.56 355 440.12 355 451 C429.25 451 503.5 451 580 451 C580 440.44 580 429.88 580 419 C612.01 419 644.02 419 677 419 C677 429.89 677 440.78 677 452 C645.32 452 613.64 452 581 452 C581 462.56 581 473.12 581 484 C452.96 484 324.92 484 193 484 C193 473.44 193 462.88 193 452 C161.32 452 129.64 452 97 452 C97 441.11 97 430.22 97 419 C75.55 419 54.1 419 32 419 C32 408.44 32 397.88 32 387 C10.88 387 -10.24 387 -32 387 C-32 376.44 -32 365.88 -32 355 C-42.89 355 -53.78 355 -65 355 C-65 344.44 -65 333.88 -65 323 C-75.56 323 -86.12 323 -97 323 C-97 258.65 -97 194.3 -97 128 C-86.44 128 -75.88 128 -65 128 C-65 106.88 -65 85.76 -65 64 C-54.11 64 -43.22 64 -32 64 C-32 53.44 -32 42.88 -32 32 C-21.44 32 -10.88 32 0 32 C0 21.44 0 10.88 0 0 Z " fill="#F3B17A" transform="translate(571,951)"/>
<path d="M0 0 C74.58 0 149.16 0 226 0 C226 10.89 226 21.78 226 33 C162.31 33 98.62 33 33 33 C33 43.56 33 54.12 33 65 C43.56 65 54.12 65 65 65 C65 75.56 65 86.12 65 97 C75.56 97 86.12 97 97 97 C97 107.89 97 118.78 97 130 C107.56 130 118.12 130 129 130 C129 140.56 129 151.12 129 162 C139.56 162 150.12 162 161 162 C161 172.56 161 183.12 161 194 C171.89 194 182.78 194 194 194 C194 215.12 194 236.24 194 258 C215.12 258 236.24 258 258 258 C258 236.88 258 215.76 258 194 C268.56 194 279.12 194 290 194 C290 236.57 290 279.14 290 323 C311.45 323 332.9 323 355 323 C355 312.44 355 301.88 355 291 C365.89 291 376.78 291 388 291 C388 280.44 388 269.88 388 259 C398.56 259 409.12 259 420 259 C420 248.44 420 237.88 420 227 C430.56 227 441.12 227 452 227 C452 216.11 452 205.22 452 194 C473.12 194 494.24 194 516 194 C516 183.44 516 172.88 516 162 C537.45 162 558.9 162 581 162 C581 119.43 581 76.86 581 33 C591.56 33 602.12 33 613 33 C613 96.69 613 160.38 613 226 C602.44 226 591.88 226 581 226 C581 236.89 581 247.78 581 259 C559.88 259 538.76 259 517 259 C517 269.23 517 279.46 517 290 C516 291 516 291 513.45005798 291.12025452 C512.31532547 291.11803391 511.18059296 291.11581329 510.01147461 291.11352539 C508.73022202 291.11344986 507.44896942 291.11337433 506.12889099 291.11329651 C504.72004152 291.10818909 503.31119244 291.10297309 501.90234375 291.09765625 C500.46887766 291.09579202 499.03541093 291.09436814 497.60194397 291.09336853 C493.82240043 291.08954372 490.0428951 291.07971377 486.2633667 291.06866455 C481.73212219 291.0566548 477.20086493 291.05204801 472.66960907 291.04621124 C465.77971278 291.03650198 458.88990038 291.0173452 452 291 C452 301.56 452 312.12 452 323 C430.55 323 409.1 323 387 323 C387 333.56 387 344.12 387 355 C280.74 355 174.48 355 65 355 C65 344.44 65 333.88 65 323 C32.99 323 0.98 323 -32 323 C-32 312.44 -32 301.88 -32 291 C-53.12 291 -74.24 291 -96 291 C-96 301.56 -96 312.12 -96 323 C-85.44 323 -74.88 323 -64 323 C-64 333.56 -64 344.12 -64 355 C-42.55 355 -21.1 355 1 355 C1 365.56 1 376.12 1 387 C32.68 387 64.36 387 97 387 C97 397.89 97 408.78 97 420 C107.56 420 118.12 420 129 420 C129 430.56 129 441.12 129 452 C139.89 452 150.78 452 162 452 C162 462.56 162 473.12 162 484 C129.99 484 97.98 484 65 484 C65 473.44 65 462.88 65 452 C32.99 452 0.98 452 -32 452 C-32 441.44 -32 430.88 -32 420 C-64.01 420 -96.02 420 -129 420 C-129 409.11 -129 398.22 -129 387 C-118.44 387 -107.88 387 -97 387 C-97 365.88 -97 344.76 -97 323 C-107.56 323 -118.12 323 -129 323 C-129 312.44 -129 301.88 -129 291 C-150.12 291 -171.24 291 -193 291 C-193 237.87 -193 184.74 -193 130 C-182.44 130 -171.88 130 -161 130 C-161 140.56 -161 151.12 -161 162 C-150.44 162 -139.88 162 -129 162 C-129 172.56 -129 183.12 -129 194 C-107.88 194 -86.76 194 -65 194 C-65 204.56 -65 215.12 -65 226 C-43.55 226 -22.1 226 0 226 C0 236.89 0 247.78 0 259 C21.12 259 42.24 259 64 259 C64 269.56 64 280.12 64 291 C74.89 291 85.78 291 97 291 C97 301.56 97 312.12 97 323 C118.12 323 139.24 323 161 323 C161 312.44 161 301.88 161 291 C171.89 291 182.78 291 194 291 C194 280.44 194 269.88 194 259 C183.44 259 172.88 259 162 259 C162 248.11 162 237.22 162 226 C151.11 226 140.22 226 129 226 C129 215.44 129 204.88 129 194 C118.44 194 107.88 194 97 194 C97 183.44 97 172.88 97 162 C86.44 162 75.88 162 65 162 C65 151.11 65 140.22 65 129 C43.55 129 22.1 129 0 129 C0 118.44 0 107.88 0 97 C-32.01 97 -64.02 97 -97 97 C-97 107.56 -97 118.12 -97 129 C-118.12 129 -139.24 129 -161 129 C-161 118.44 -161 107.88 -161 97 C-150.44 97 -139.88 97 -129 97 C-129 86.44 -129 75.88 -129 65 C-96.99 65 -64.98 65 -32 65 C-32 54.44 -32 43.88 -32 33 C-21.44 33 -10.88 33 0 33 C0 22.11 0 11.22 0 0 Z " fill="#135041" transform="translate(732,531)"/>
<path d="M0 0 C32.34 0 64.68 0 98 0 C98 10.56 98 21.12 98 32 C108.56 32 119.12 32 130 32 C130 85.46 130 138.92 130 194 C108.55 194 87.1 194 65 194 C65 204.56 65 215.12 65 226 C43.88 226 22.76 226 1 226 C1 236.89 1 247.78 1 259 C-9.56 259 -20.12 259 -31 259 C-31 269.56 -31 280.12 -31 291 C-41.56 291 -52.12 291 -63 291 C-63 301.56 -63 312.12 -63 323 C-73.89 323 -84.78 323 -96 323 C-96 333.56 -96 344.12 -96 355 C-117.45 355 -138.9 355 -161 355 C-161 312.43 -161 269.86 -161 226 C-171.56 226 -182.12 226 -193 226 C-193 247.12 -193 268.24 -193 290 C-214.12 290 -235.24 290 -257 290 C-257 268.88 -257 247.76 -257 226 C-267.89 226 -278.78 226 -290 226 C-290 215.44 -290 204.88 -290 194 C-300.56 194 -311.12 194 -322 194 C-322 183.44 -322 172.88 -322 162 C-332.56 162 -343.12 162 -354 162 C-354 151.11 -354 140.22 -354 129 C-364.56 129 -375.12 129 -386 129 C-386 118.44 -386 107.88 -386 97 C-396.56 97 -407.12 97 -418 97 C-418 86.44 -418 75.88 -418 65 C-343.75 65 -269.5 65 -193 65 C-193 75.56 -193 86.12 -193 97 C-171.55 97 -150.1 97 -128 97 C-128 107.56 -128 118.12 -128 129 C-117.44 129 -106.88 129 -96 129 C-96 118.44 -96 107.88 -96 97 C-85.44 97 -74.88 97 -64 97 C-64 86.11 -64 75.22 -64 64 C-53.44 64 -42.88 64 -32 64 C-32 53.44 -32 42.88 -32 32 C-21.44 32 -10.88 32 0 32 C0 21.44 0 10.88 0 0 Z " fill="#8CCC6C" transform="translate(1183,499)"/>
<path d="M0 0 C42.57 0 85.14 0 129 0 C129 10.56 129 21.12 129 32 C161.01 32 193.02 32 226 32 C226 42.56 226 53.12 226 64 C204.55 64 183.1 64 161 64 C161 74.89 161 85.78 161 97 C150.44 97 139.88 97 129 97 C129 107.56 129 118.12 129 129 C118.44 129 107.88 129 97 129 C97 150.12 97 171.24 97 193 C86.11 193 75.22 193 64 193 C64 246.46 64 299.92 64 355 C74.56 355 85.12 355 96 355 C96.33 365.23 96.66 375.46 97 386 C128.68 386.495 128.68 386.495 161 387 C161 397.56 161 408.12 161 419 C171.56 419 182.12 419 193 419 C193 429.56 193 440.12 193 451 C161.32 451 129.64 451 97 451 C97 440.44 97 429.88 97 419 C75.55 419 54.1 419 32 419 C32 408.44 32 397.88 32 387 C10.88 387 -10.24 387 -32 387 C-32 376.44 -32 365.88 -32 355 C-42.89 355 -53.78 355 -65 355 C-65 344.44 -65 333.88 -65 323 C-75.56 323 -86.12 323 -97 323 C-97 258.65 -97 194.3 -97 128 C-86.44 128 -75.88 128 -65 128 C-65 106.88 -65 85.76 -65 64 C-54.11 64 -43.22 64 -32 64 C-32 53.44 -32 42.88 -32 32 C-21.44 32 -10.88 32 0 32 C0 21.44 0 10.88 0 0 Z " fill="#E47D54" transform="translate(571,951)"/>
<path d="M0 0 C21.12 0 42.24 0 64 0 C64 10.56 64 21.12 64 32 C96.01 32 128.02 32 161 32 C161 42.56 161 53.12 161 64 C267.26 64 373.52 64 483 64 C483 53.44 483 42.88 483 32 C504.45 32 525.9 32 548 32 C548 21.44 548 10.88 548 0 C579.68 0 611.36 0 644 0 C644 31.68 644 63.36 644 96 C612.32 96 580.64 96 548 96 C548 106.89 548 117.78 548 129 C515.99 129 483.98 129 451 129 C451 139.56 451 150.12 451 161 C376.42 161 301.84 161 225 161 C225 150.44 225 139.88 225 129 C214.44 129 203.88 129 193 129 C193 118.11 193 107.22 193 96 C161.32 96 129.64 96 97 96 C97 85.44 97 74.88 97 64 C75.55 64 54.1 64 32 64 C32 53.44 32 42.88 32 32 C21.44 32 10.88 32 0 32 C0 21.44 0 10.88 0 0 Z " fill="#F0D89C" transform="translate(636,822)"/>
<path d="M0 0 C10.56 0 21.12 0 32 0 C32 10.56 32 21.12 32 32 C42.56 32 53.12 32 64 32 C64 42.56 64 53.12 64 64 C85.12 64 106.24 64 128 64 C128 74.56 128 85.12 128 96 C149.45 96 170.9 96 193 96 C193 106.89 193 117.78 193 129 C214.12 129 235.24 129 257 129 C257 139.56 257 150.12 257 161 C267.89 161 278.78 161 290 161 C290 171.56 290 182.12 290 193 C247.43 193 204.86 193 161 193 C161 182.44 161 171.88 161 161 C139.88 161 118.76 161 97 161 C97 171.56 97 182.12 97 193 C107.56 193 118.12 193 129 193 C129 203.56 129 214.12 129 225 C150.45 225 171.9 225 194 225 C194 235.56 194 246.12 194 257 C225.68 257 257.36 257 290 257 C290 267.89 290 278.78 290 290 C300.56 290 311.12 290 322 290 C322 300.56 322 311.12 322 322 C332.89 322 343.78 322 355 322 C355 332.56 355 343.12 355 354 C322.99 354 290.98 354 258 354 C258 343.44 258 332.88 258 322 C225.99 322 193.98 322 161 322 C161 311.44 161 300.88 161 290 C128.99 290 96.98 290 64 290 C64 279.11 64 268.22 64 257 C74.56 257 85.12 257 96 257 C96 235.88 96 214.76 96 193 C85.44 193 74.88 193 64 193 C64 182.44 64 171.88 64 161 C42.88 161 21.76 161 0 161 C0 107.87 0 54.74 0 0 Z " fill="#155041" transform="translate(539,661)"/>
<path d="M0 0 C32.01 0 64.02 0 97 0 C97 10.56 97 21.12 97 32 C118.45 32 139.9 32 162 32 C162 42.89 162 53.78 162 65 C172.56 65 183.12 65 194 65 C194 75.56 194 86.12 194 97 C204.56 97 215.12 97 226 97 C226 107.56 226 118.12 226 129 C236.89 129 247.78 129 259 129 C259 139.89 259 150.78 259 162 C269.56 162 280.12 162 291 162 C291 172.56 291 183.12 291 194 C280.11 194 269.22 194 258 194 C258 204.56 258 215.12 258 226 C236.88 226 215.76 226 194 226 C194 215.44 194 204.88 194 194 C183.11 194 172.22 194 161 194 C161 183.44 161 172.88 161 162 C139.88 162 118.76 162 97 162 C97 151.11 97 140.22 97 129 C75.55 129 54.1 129 32 129 C32 118.44 32 107.88 32 97 C10.88 97 -10.24 97 -32 97 C-32 86.44 -32 75.88 -32 65 C-42.56 65 -53.12 65 -64 65 C-64 54.44 -64 43.88 -64 33 C-74.56 33 -85.12 33 -96 33 C-96 32.67 -96 32.34 -96 32 C-64.32 32 -32.64 32 0 32 C0 21.44 0 10.88 0 0 Z " fill="#8CCB6C" transform="translate(635,628)"/>
<path d="M0 0 C74.25 0 148.5 0 225 0 C225 21.45 225 42.9 225 65 C214.44 65 203.88 65 193 65 C193 75.23 193 85.46 193 96 C197.599375 95.979375 202.19875 95.95875 206.9375 95.9375 C223.97250476 95.90092314 240.97765347 96.38028638 258 97 C258.13955575 118.36705901 257.76272327 139.64374853 257 161 C246.44 161 235.88 161 225 161 C225 182.12 225 203.24 225 225 C203.88 225 182.76 225 161 225 C161 203.88 161 182.76 161 161 C150.11 161 139.22 161 128 161 C128 150.44 128 139.88 128 129 C117.44 129 106.88 129 96 129 C96 118.44 96 107.88 96 97 C85.44 97 74.88 97 64 97 C64 86.11 64 75.22 64 64 C53.44 64 42.88 64 32 64 C32 53.44 32 42.88 32 32 C21.44 32 10.88 32 0 32 C0 21.44 0 10.88 0 0 Z " fill="#8CCD6C" transform="translate(765,564)"/>
<path d="M0 0 C10.89 0 21.78 0 33 0 C32.67 106.26 32.34 212.52 32 322 C28.90200554 323.03266482 26.67740727 323.15509525 23.42700195 323.20532227 C22.28604568 323.22526749 21.14508942 323.24521271 19.96955872 323.26576233 C18.12257637 323.29083107 18.12257637 323.29083107 16.23828125 323.31640625 C14.97735153 323.33718735 13.71642181 323.35796844 12.4172821 323.37937927 C9.06854542 323.43372122 5.71979795 323.48396166 2.37097168 323.53222656 C-1.04766229 323.58250357 -4.46620826 323.63815724 -7.88476562 323.69335938 C-14.58977362 323.800535 -21.29484753 323.90230512 -28 324 C-31.44948714 331.82037987 -31.44948714 331.82037987 -31 353 C-10.54 353 9.92 353 31 353 C31 353.33 31 353.66 31 354 C-0.35 354 -31.7 354 -64 354 C-64 279.75 -64 205.5 -64 129 C-53.44 129 -42.88 129 -32 129 C-32 96.99 -32 64.98 -32 32 C-21.44 32 -10.88 32 0 32 C0 21.44 0 10.88 0 0 Z " fill="#E77E54" transform="translate(571,951)"/>
<path d="M0 0 C10.56 0 21.12 0 32 0 C32 63.69 32 127.38 32 193 C21.44 193 10.88 193 0 193 C0 203.89 0 214.78 0 226 C-21.12 226 -42.24 226 -64 226 C-64 236.23 -64 246.46 -64 257 C-65 258 -65 258 -67.54994202 258.12025452 C-68.68467453 258.11803391 -69.81940704 258.11581329 -70.98852539 258.11352539 C-72.26977798 258.11344986 -73.55103058 258.11337433 -74.87110901 258.11329651 C-76.27995848 258.10818909 -77.68880756 258.10297309 -79.09765625 258.09765625 C-80.53112234 258.09579202 -81.96458907 258.09436814 -83.39805603 258.09336853 C-87.17759957 258.08954372 -90.9571049 258.07971377 -94.7366333 258.06866455 C-99.26787781 258.0566548 -103.79913507 258.05204801 -108.33039093 258.04621124 C-115.22028722 258.03650198 -122.11009962 258.0173452 -129 258 C-129 268.56 -129 279.12 -129 290 C-161.01 290 -193.02 290 -226 290 C-226 279.44 -226 268.88 -226 258 C-215.11 258 -204.22 258 -193 258 C-193 247.44 -193 236.88 -193 226 C-182.44 226 -171.88 226 -161 226 C-161 215.44 -161 204.88 -161 194 C-150.44 194 -139.88 194 -129 194 C-129 183.11 -129 172.22 -129 161 C-107.88 161 -86.76 161 -65 161 C-65 150.44 -65 139.88 -65 129 C-43.55 129 -22.1 129 0 129 C0 86.43 0 43.86 0 0 Z " fill="#134F41" transform="translate(1313,564)"/>
<path d="M0 0 C21.12 0 42.24 0 64 0 C64 10.56 64 21.12 64 32 C96.01 32 128.02 32 161 32 C161 42.56 161 53.12 161 64 C267.26 64 373.52 64 483 64 C483 64.33 483 64.66 483 65 C408.75 65 334.5 65 258 65 C258 85.79 258 106.58 258 128 C332.25 128 406.5 128 483 128 C483 117.77 483 107.54 483 97 C484 96 484 96 486.54994202 95.87974548 C488.25204079 95.8830764 488.25204079 95.8830764 489.98852539 95.88647461 C491.26977798 95.88655014 492.55103058 95.88662567 493.87110901 95.88670349 C495.27995848 95.89181091 496.68880756 95.89702691 498.09765625 95.90234375 C499.53112234 95.90420798 500.96458907 95.90563186 502.39805603 95.90663147 C506.17759957 95.91045628 509.9571049 95.92028623 513.7366333 95.93133545 C518.26787781 95.9433452 522.79913507 95.94795199 527.33039093 95.95378876 C534.22028722 95.96349802 541.11009962 95.9826548 548 96 C548 106.89 548 117.78 548 129 C515.99 129 483.98 129 451 129 C451 139.56 451 150.12 451 161 C376.42 161 301.84 161 225 161 C225 150.44 225 139.88 225 129 C214.44 129 203.88 129 193 129 C193 118.11 193 107.22 193 96 C161.32 96 129.64 96 97 96 C97 85.44 97 74.88 97 64 C75.55 64 54.1 64 32 64 C32 53.44 32 42.88 32 32 C21.44 32 10.88 32 0 32 C0 21.44 0 10.88 0 0 Z " fill="#E67E55" transform="translate(636,822)"/>
<path d="M0 0 C21.12 0 42.24 0 64 0 C64 32.01 64 64.02 64 97 C53.44 97 42.88 97 32 97 C32 139.57 32 182.14 32 226 C-10.57 226 -53.14 226 -97 226 C-97 215.44 -97 204.88 -97 194 C-107.56 194 -118.12 194 -129 194 C-129 183.11 -129 172.22 -129 161 C-97.32 161 -65.64 161 -33 161 C-33 129.32 -33 97.64 -33 65 C-43.56 65 -54.12 65 -65 65 C-64.67 54.44 -64.34 43.88 -64 33 C-42.88 33 -21.76 33 0 33 C0 22.11 0 11.22 0 0 Z " fill="#454D6E" transform="translate(1313,757)"/>
<path d="M0 0 C0.33 0 0.66 0 1 0 C1 10.56 1 21.12 1 32 C11.56 32 22.12 32 33 32 C33 42.56 33 53.12 33 64 C54.45 64 75.9 64 98 64 C98 74.56 98 85.12 98 96 C129.68 96 161.36 96 194 96 C194 106.89 194 117.78 194 129 C204.56 129 215.12 129 226 129 C226 139.56 226 150.12 226 161 C236.89 161 247.78 161 259 161 C259 171.56 259 182.12 259 193 C226.99 193 194.98 193 162 193 C162 182.44 162 171.88 162 161 C129.99 161 97.98 161 65 161 C65 150.44 65 139.88 65 129 C32.99 129 0.98 129 -32 129 C-32 118.11 -32 107.22 -32 96 C-21.44 96 -10.88 96 0 96 C0 64.32 0 32.64 0 0 Z " fill="#2C304D" transform="translate(635,822)"/>
<path d="M0 0 C10.89 0 21.78 0 33 0 C33 10.56 33 21.12 33 32 C43.56 32 54.12 32 65 32 C65 53.45 65 74.9 65 97 C75.56 97 86.12 97 97 97 C97 161.02 97 225.04 97 291 C86.44 291 75.88 291 65 291 C65 301.56 65 312.12 65 323 C54.44 323 43.88 323 33 323 C33 333.56 33 344.12 33 355 C11.55 355 -9.9 355 -32 355 C-32 365.56 -32 376.12 -32 387 C-53.45 387 -74.9 387 -97 387 C-97 376.11 -97 365.22 -97 354 C-86.44 354 -75.88 354 -65 354 C-65.03959822 343.84286908 -65.03959822 343.84286908 -65.09008789 333.68579102 C-65.09258545 332.42951904 -65.09508301 331.17324707 -65.09765625 329.87890625 C-65.10551147 327.93866577 -65.10551147 327.93866577 -65.11352539 325.95922852 C-65 323 -65 323 -64 322 C-61.70848583 321.91209025 -59.41427476 321.89305962 -57.12109375 321.90234375 C-56.09110008 321.90446617 -56.09110008 321.90446617 -55.04029846 321.90663147 C-52.83932199 321.91224521 -50.63844591 321.92479993 -48.4375 321.9375 C-46.94856917 321.94251324 -45.45963676 321.94707645 -43.97070312 321.95117188 C-40.31376925 321.96221907 -36.65689442 321.97949287 -33 322 C-33.00523682 321.06615479 -33.01047363 320.13230957 -33.01586914 319.17016602 C-33.0328762 315.71687204 -33.04543302 312.26362233 -33.05493164 308.81030273 C-33.05997121 307.31355082 -33.06680287 305.81680384 -33.07543945 304.32006836 C-33.08752159 302.17300193 -33.09323191 300.02600038 -33.09765625 297.87890625 C-33.10289307 296.5854126 -33.10812988 295.29191895 -33.11352539 293.95922852 C-33 291 -33 291 -32 290 C-30.0056827 289.90594858 -28.00800457 289.88256751 -26.01147461 289.88647461 C-24.73022202 289.88655014 -23.44896942 289.88662567 -22.12889099 289.88670349 C-20.72004152 289.89181091 -19.31119244 289.89702691 -17.90234375 289.90234375 C-16.46887766 289.90420798 -15.03541093 289.90563186 -13.60194397 289.90663147 C-9.82240043 289.91045628 -6.0428951 289.92028623 -2.2633667 289.93133545 C2.26787781 289.9433452 6.79913507 289.94795199 11.33039093 289.95378876 C18.22028722 289.96349802 25.11009962 289.9826548 32 290 C32 279.44 32 268.88 32 258 C42.56 258 53.12 258 64 258 C64 204.87 64 151.74 64 97 C53.44 97 42.88 97 32 97 C32 75.88 32 54.76 32 33 C21.44 33 10.88 33 0 33 C0 22.11 0 11.22 0 0 Z " fill="#B86347" transform="translate(1345,983)"/>
<path d="M0 0 C21.45 0 42.9 0 65 0 C65 10.56 65 21.12 65 32 C75.56 32 86.12 32 97 32 C97 42.89 97 53.78 97 65 C86.44 65 75.88 65 65 65 C65 75.56 65 86.12 65 97 C75.56 97 86.12 97 97 97 C97 150.13 97 203.26 97 258 C75.55 258 54.1 258 32 258 C31.97727276 237.56086952 31.95891702 217.12174955 31.94818783 196.68260956 C31.94306979 187.18862958 31.93611473 177.69465811 31.92456055 168.20068359 C31.91447431 159.90883487 31.90811409 151.61699231 31.90591151 143.32513762 C31.9046276 138.95005241 31.90169411 134.57498484 31.89426994 130.1999054 C31.85875259 108.44510997 32.15760601 86.73974875 33 65 C32.00929221 65.00439559 31.01858442 65.00879118 29.99785519 65.01331997 C28.04452943 65.02188566 28.04452943 65.02188566 26.05174255 65.03062439 C24.11708712 65.03915137 24.11708712 65.03915137 22.14334774 65.04785061 C4.0698425 65.12052164 -13.9361671 64.64802988 -32 64 C-32 53.77 -32 43.54 -32 33 C-21.44 33 -10.88 33 0 33 C0 22.11 0 11.22 0 0 Z " fill="#5CAC47" transform="translate(990,596)"/>
<path d="M0 0 C10.56 0 21.12 0 32 0 C32 21.12 32 42.24 32 64 C85.13 64 138.26 64 193 64 C193 74.56 193 85.12 193 96 C86.74 96 -19.52 96 -129 96 C-129 85.44 -129 74.88 -129 64 C-97.32 64 -65.64 64 -33 64 C-33 53.44 -33 42.88 -33 32 C-22.11 32 -11.22 32 0 32 C0 21.44 0 10.88 0 0 Z " fill="#050328" transform="translate(926,790)"/>
<path d="M0 0 C127.38 0 254.76 0 386 0 C386 10.56 386 21.12 386 32 C258.62 32 131.24 32 0 32 C0 21.44 0 10.88 0 0 Z " fill="#040327" transform="translate(765,1402)"/>
<path d="M0 0 C42.57 0 85.14 0 129 0 C129 10.56 129 21.12 129 32 C96.99 32 64.98 32 32 32 C32 42.56 32 53.12 32 64 C0.32 64 -31.36 64 -64 64 C-64 74.56 -64 85.12 -64 96 C-64.33 96 -64.66 96 -65 96 C-65 85.44 -65 74.88 -65 64 C-107.24 64 -149.48 64 -193 64 C-193 53.44 -193 42.88 -193 32 C-129.31 32 -65.62 32 0 32 C0 21.44 0 10.88 0 0 Z " fill="#647391" transform="translate(1087,951)"/>
<path d="M0 0 C21.12 0 42.24 0 64 0 C64 32.01 64 64.02 64 97 C42.55 97 21.1 97 -1 97 C-1 107.56 -1 118.12 -1 129 C-11.56 129 -22.12 129 -33 129 C-33 107.88 -33 86.76 -33 65 C-43.56 65 -54.12 65 -65 65 C-64.67 54.44 -64.34 43.88 -64 33 C-42.88 33 -21.76 33 0 33 C0 22.11 0 11.22 0 0 Z " fill="#E77D54" transform="translate(1313,757)"/>
<path d="M0 0 C10.56 0 21.12 0 32 0 C32 21.45 32 42.9 32 65 C53.12 65 74.24 65 96 65 C96 75.56 96 86.12 96 97 C74.88 97 53.76 97 32 97 C32 118.12 32 139.24 32 161 C21.44 161 10.88 161 0 161 C0 139.88 0 118.76 0 97 C-21.45 97 -42.9 97 -65 97 C-65 86.11 -65 75.22 -65 64 C-43.55 64 -22.1 64 0 64 C0 42.88 0 21.76 0 0 Z " fill="#1C2834" transform="translate(1055,1209)"/>
<path d="M0 0 C31.68 0 63.36 0 96 0 C96 31.68 96 63.36 96 96 C64.32 96 32.64 96 0 96 C0 75.21 0 54.42 0 33 C-21.12 33 -42.24 33 -64 33 C-64 43.23 -64 53.46 -64 64 C-64.33 64 -64.66 64 -65 64 C-65 53.44 -65 42.88 -65 32 C-43.55 32 -22.1 32 0 32 C0 21.44 0 10.88 0 0 Z " fill="#F3B17A" transform="translate(1184,822)"/>
<path d="M0 0 C31.68 0 63.36 0 96 0 C96 10.56 96 21.12 96 32 C106.56 32 117.12 32 128 32 C128 74.24 128 116.48 128 160 C106.88 160 85.76 160 64 160 C64 149.44 64 138.88 64 128 C74.56 128 85.12 128 96 128 C96 106.88 96 85.76 96 64 C85.44 64 74.88 64 64 64 C64 53.44 64 42.88 64 32 C42.88 32 21.76 32 0 32 C0 21.44 0 10.88 0 0 Z " fill="#EFD89B" transform="translate(1184,532)"/>
<path d="M0 0 C21.45 0 42.9 0 65 0 C65 10.56 65 21.12 65 32 C75.56 32 86.12 32 97 32 C97 42.89 97 53.78 97 65 C86.44 65 75.88 65 65 65 C65 86.12 65 107.24 65 129 C54.11 129 43.22 129 32 129 C31.90459979 107.63035253 32.19328209 86.35227836 33 65 C32.16791016 65.00523682 31.33582031 65.01047363 30.47851562 65.01586914 C9.62129556 65.12847988 -11.1532358 64.74786598 -32 64 C-32 53.77 -32 43.54 -32 33 C-21.44 33 -10.88 33 0 33 C0 22.11 0 11.22 0 0 Z " fill="#B76247" transform="translate(990,596)"/>
<path d="M0 0 C10.56 0 21.12 0 32 0 C32 21.12 32 42.24 32 64 C53.12 64 74.24 64 96 64 C96 42.88 96 21.76 96 0 C106.56 0 117.12 0 128 0 C128 42.57 128 85.14 128 129 C106.88 129 85.76 129 64 129 C64 107.88 64 86.76 64 65 C42.88 65 21.76 65 0 65 C0 43.55 0 22.1 0 0 Z " fill="#144F41" transform="translate(894,725)"/>
<path d="M0 0 C74.58 0 149.16 0 226 0 C226 10.56 226 21.12 226 32 C151.42 32 76.84 32 0 32 C0 21.44 0 10.88 0 0 Z " fill="#E77E54" transform="translate(861,951)"/>
<path d="M0 0 C10.56 0 21.12 0 32 0 C32 21.12 32 42.24 32 64 C-0.01 64 -32.02 64 -65 64 C-65 74.56 -65 85.12 -65 96 C-86.12 96 -107.24 96 -129 96 C-129 85.44 -129 74.88 -129 64 C-118.44 64 -107.88 64 -97 64 C-97 53.44 -97 42.88 -97 32 C-64.99 32 -32.98 32 0 32 C0 21.44 0 10.88 0 0 Z " fill="#050328" transform="translate(700,564)"/>
<path d="M0 0 C63.69 0 127.38 0 193 0 C193 10.56 193 21.12 193 32 C150.43 32 107.86 32 64 32 C64 42.56 64 53.12 64 64 C53.44 64 42.88 64 32 64 C32 53.44 32 42.88 32 32 C21.44 32 10.88 32 0 32 C0 21.44 0 10.88 0 0 Z " fill="#F0D89C" transform="translate(765,564)"/>
<path d="M0 0 C74.25 0 148.5 0 225 0 C225 10.23 225 20.46 225 31 C200.24093842 31.13134417 175.48187238 31.26180946 150.72280025 31.39115143 C139.22331955 31.45124642 127.72384055 31.51163643 116.22436523 31.57275391 C106.18595887 31.6261053 96.1475496 31.67886962 86.10913664 31.73096704 C80.80796906 31.75849857 75.50680323 31.78629813 70.20564079 31.81480408 C46.80333584 31.94044989 23.40269162 32.0252763 0 32 C0 21.44 0 10.88 0 0 Z " fill="#050327" transform="translate(733,532)"/>
<path d="M0 0 C21.45 0 42.9 0 65 0 C65 20.79 65 41.58 65 63 C139.25 63 213.5 63 290 63 C290 52.77 290 42.54 290 32 C291 31 291 31 293.54994202 30.87974548 C295.25204079 30.8830764 295.25204079 30.8830764 296.98852539 30.88647461 C298.26977798 30.88655014 299.55103058 30.88662567 300.87110901 30.88670349 C302.27995848 30.89181091 303.68880756 30.89702691 305.09765625 30.90234375 C306.53112234 30.90420798 307.96458907 30.90563186 309.39805603 30.90663147 C313.17759957 30.91045628 316.9571049 30.92028623 320.7366333 30.93133545 C325.26787781 30.9433452 329.79913507 30.94795199 334.33039093 30.95378876 C341.22028722 30.96349802 348.11009962 30.9826548 355 31 C355 41.89 355 52.78 355 64 C237.85 64 120.7 64 0 64 C0 42.88 0 21.76 0 0 Z " fill="#F2B17B" transform="translate(829,887)"/>
<path d="M0 0 C21.45 0 42.9 0 65 0 C65 10.56 65 21.12 65 32 C75.56 32 86.12 32 97 32 C97 42.89 97 53.78 97 65 C85 65 73 65 61 65 C47.635 65.495 47.635 65.495 34 66 C33.67 86.46 33.34 106.92 33 128 C43.56 128 54.12 128 65 128 C65 128.33 65 128.66 65 129 C54.11 129 43.22 129 32 129 C32 118.44 32 107.88 32 97 C21.44 97 10.88 97 0 97 C0 64.99 0 32.98 0 0 Z " fill="#6E5857" transform="translate(958,1080)"/>
<path d="M0 0 C10.56 0 21.12 0 32 0 C32 63.69 32 127.38 32 193 C21.44 193 10.88 193 0 193 C0 129.31 0 65.62 0 0 Z " fill="#040327" transform="translate(1313,564)"/>
<path d="M0 0 C10.56 0 21.12 0 32 0 C32 42.57 32 85.14 32 129 C42.56 129 53.12 129 64 129 C64 139.23 64 149.46 64 160 C42.88 160 21.76 160 0 160 C0 107.2 0 54.4 0 0 Z " fill="#040327" transform="translate(539,661)"/>
<path d="M0 0 C10.56 0 21.12 0 32 0 C32 10.56 32 21.12 32 32 C53.12 32 74.24 32 96 32 C96 42.56 96 53.12 96 64 C74.55 64 53.1 64 31 64 C31 74.56 31 85.12 31 96 C10.21 96 -10.58 96 -32 96 C-32 85.77 -32 75.54 -32 65 C-21.44 65 -10.88 65 0 65 C0 43.55 0 22.1 0 0 Z " fill="#060328" transform="translate(636,854)"/>
<path d="M0 0 C10.23 0 20.46 0 31 0 C31 63.69 31 127.38 31 193 C20.77 193 10.54 193 0 193 C0 129.31 0 65.62 0 0 Z " fill="#040327" transform="translate(1410,1080)"/>
<path d="M0 0 C10.23 0 20.46 0 31 0 C31 63.69 31 127.38 31 193 C20.77 193 10.54 193 0 193 C0 129.31 0 65.62 0 0 Z " fill="#040327" transform="translate(475,1080)"/>
<path d="M0 0 C0.33 0 0.66 0 1 0 C1 10.56 1 21.12 1 32 C32.68 32 64.36 32 97 32 C97 42.89 97 53.78 97 65 C88.37497559 65.0287288 79.75005592 65.05166482 71.125 65.0625 C70.44874573 65.06335602 69.77249146 65.06421204 69.07574463 65.06509399 C39.38185219 65.09802184 9.69193949 64.81794379 -20 64.5 C-21.67562138 64.48206327 -21.67562138 64.48206327 -23.38509369 64.46376419 C-37.25679388 64.31476009 -51.12841745 64.15956054 -65 64 C-65 53.44 -65 42.88 -65 32 C-43.55 32 -22.1 32 0 32 C0 21.44 0 10.88 0 0 Z " fill="#2C2F4C" transform="translate(732,886)"/>
<path d="M0 0 C10.56 0 21.12 0 32 0 C32 10.89 32 21.78 32 33 C53.12 33 74.24 33 96 33 C96 43.56 96 54.12 96 65 C53.43 65 10.86 65 -33 65 C-33 54.11 -33 43.22 -33 32 C-22.11 32 -11.22 32 0 32 C0 21.44 0 10.88 0 0 Z " fill="#6D5656" transform="translate(1023,1015)"/>
<path d="M0 0 C42.57 0 85.14 0 129 0 C129 10.56 129 21.12 129 32 C96.99 32 64.98 32 32 32 C32 42.56 32 53.12 32 64 C11.21 64 -9.58 64 -31 64 C-31 63.67 -31 63.34 -31 63 C-21.43 63 -11.86 63 -2 63 C-1.67 61.35 -1.34 59.7 -1 58 C-0.34 58 0.32 58 1 58 C0.96970703 57.41549072 0.93941406 56.83098145 0.90820312 56.22875977 C-0.03166434 37.4440626 0 18.84775529 0 0 Z " fill="#647392" transform="translate(1087,951)"/>
<path d="M0 0 C10.56 0 21.12 0 32 0 C32 10.56 32 21.12 32 32 C53.12 32 74.24 32 96 32 C96 42.56 96 53.12 96 64 C75.21 64.33 54.42 64.66 33 65 C32.67 75.56 32.34 86.12 32 97 C21.44 97 10.88 97 0 97 C0 64.99 0 32.98 0 0 Z " fill="#134F41" transform="translate(571,693)"/>
<path d="M0 0 C10.56 0 21.12 0 32 0 C32 53.13 32 106.26 32 161 C21.44 161 10.88 161 0 161 C0 107.87 0 54.74 0 0 Z " fill="#F4B17A" transform="translate(1377,1080)"/>
<path d="M0 0 C10.56 0 21.12 0 32 0 C32 42.57 32 85.14 32 129 C10.88 129 -10.24 129 -32 129 C-32 118.44 -32 107.88 -32 97 C-21.44 97 -10.88 97 0 97 C0 64.99 0 32.98 0 0 Z " fill="#050328" transform="translate(1313,854)"/>
<path d="M0 0 C32.01 0 64.02 0 97 0 C97 10.56 97 21.12 97 32 C86.11 32 75.22 32 64 32 C64 42.56 64 53.12 64 64 C42.88 64 21.76 64 0 64 C0 42.88 0 21.76 0 0 Z " fill="#5CAC47" transform="translate(829,790)"/>
<path d="M0 0 C21.12 0 42.24 0 64 0 C64 10.89 64 21.78 64 33 C74.56 33 85.12 33 96 33 C96 54.12 96 75.24 96 97 C85.44 97 74.88 97 64 97 C63.67 86.44 63.34 75.88 63 65 C52.77 64.67 42.54 64.34 32 64 C31.505 48.655 31.505 48.655 31 33 C20.77 32.67 10.54 32.34 0 32 C0 21.44 0 10.88 0 0 Z " fill="#F3B17A" transform="translate(1281,983)"/>
<path d="M0 0 C1.3488873 0.00025096 2.69778106 0.00580724 4.04663086 0.01586914 C5.99194702 0.01961548 5.99194702 0.01961548 7.9765625 0.0234375 C9.6380835 0.0325415 11.29960449 0.04164551 13.01147461 0.05102539 C18.27084961 0.07165039 23.53022461 0.09227539 28.94897461 0.11352539 C28.94897461 10.67352539 28.94897461 21.23352539 28.94897461 32.11352539 C18.38897461 32.11352539 7.82897461 32.11352539 -3.05102539 32.11352539 C-3.05102539 53.56352539 -3.05102539 75.01352539 -3.05102539 97.11352539 C-24.50102539 97.11352539 -45.95102539 97.11352539 -68.05102539 97.11352539 C-68.05102539 86.22352539 -68.05102539 75.33352539 -68.05102539 64.11352539 C-57.49102539 64.11352539 -46.93102539 64.11352539 -36.05102539 64.11352539 C-36.09062362 53.95639447 -36.09062362 53.95639447 -36.14111328 43.79931641 C-36.14361084 42.54304443 -36.1461084 41.28677246 -36.14868164 39.99243164 C-36.15653687 38.05219116 -36.15653687 38.05219116 -36.16455078 36.07275391 C-36.05102539 33.11352539 -36.05102539 33.11352539 -35.05102539 32.11352539 C-32.75951122 32.02561564 -30.46530015 32.00658501 -28.17211914 32.01586914 C-27.14212547 32.01799156 -27.14212547 32.01799156 -26.09132385 32.02015686 C-23.89034738 32.0257706 -21.6894713 32.03832532 -19.48852539 32.05102539 C-17.99959456 32.05603863 -16.51066215 32.06060184 -15.02172852 32.06469727 C-11.36479464 32.07574446 -7.70791981 32.09301826 -4.05102539 32.11352539 C-4.05626221 31.17968018 -4.06149902 30.24583496 -4.06689453 29.28369141 C-4.08390159 25.83039743 -4.09645841 22.37714772 -4.10595703 18.92382812 C-4.1109966 17.42707621 -4.11782826 15.93032923 -4.12646484 14.43359375 C-4.13854698 12.28652732 -4.1442573 10.13952577 -4.14868164 7.99243164 C-4.15391846 6.69893799 -4.15915527 5.40544434 -4.16455078 4.07275391 C-4.01403687 0.14935802 -4.01403687 0.14935802 0 0 Z " fill="#F4B179" transform="translate(1316.051025390625,1272.886474609375)"/>
<path d="M0 0 C21.12 0 42.24 0 64 0 C64 32.01 64 64.02 64 97 C53.44 97 42.88 97 32 97 C32 75.55 32 54.1 32 32 C21.44 32 10.88 32 0 32 C0 21.44 0 10.88 0 0 Z " fill="#1C2834" transform="translate(1023,1080)"/>
<path d="M0 0 C21.12 0 42.24 0 64 0 C64 10.56 64 21.12 64 32 C74.89 32 85.78 32 97 32 C97 42.56 97 53.12 97 64 C75.55 64 54.1 64 32 64 C32 53.44 32 42.88 32 32 C21.44 32 10.88 32 0 32 C0 21.44 0 10.88 0 0 Z " fill="#1C2834" transform="translate(732,790)"/>
<path d="M0 0 C21.12 0 42.24 0 64 0 C64 21.12 64 42.24 64 64 C42.88 64 21.76 64 0 64 C0 42.88 0 21.76 0 0 Z " fill="#5CAD47" transform="translate(926,725)"/>
<path d="M0 0 C74.58 0 149.16 0 226 0 C226 0.33 226 0.66 226 1 C151.75 1 77.5 1 1 1 C1 11.56 1 22.12 1 33 C5.1772876 32.83701416 9.3545752 32.67402832 13.65844727 32.50610352 C33.87521692 31.80974853 54.09118783 31.87042203 74.31745601 31.89860606 C79.67180545 31.90496463 85.02615579 31.90545308 90.38050842 31.90663147 C100.46594886 31.90970865 110.55137813 31.91787199 120.6368137 31.92798096 C132.14154434 31.93925603 143.64627558 31.94468091 155.15101039 31.94967639 C178.76734639 31.96005871 202.38367256 31.9775862 226 32 C226 32.33 226 32.66 226 33 C162.31 33 98.62 33 33 33 C33 43.56 33 54.12 33 65 C43.56 65 54.12 65 65 65 C65 75.56 65 86.12 65 97 C75.56 97 86.12 97 97 97 C97 107.89 97 118.78 97 130 C96.67 130 96.34 130 96 130 C96 119.44 96 108.88 96 98 C75.54 98 55.08 98 34 98 C34 107.9 34 117.8 34 128 C33.67 128 33.34 128 33 128 C33 118.1 33 108.2 33 98 C22.44 98 11.88 98 1 98 C1 108.23 1 118.46 1 129 C0.67 129 0.34 129 0 129 C0 86.43 0 43.86 0 0 Z " fill="#1E5248" transform="translate(732,531)"/>
<path d="M0 0 C10.23 0 20.46 0 31 0 C31 21.12 31 42.24 31 64 C28.525 64.495 28.525 64.495 26 65 C26 75.23 26 85.46 26 96 C6.86 96 -12.28 96 -32 96 C-32 85.77 -32 75.54 -32 65 C-21.44 65 -10.88 65 0 65 C0 43.55 0 22.1 0 0 Z " fill="#124F41" transform="translate(991,725)"/>
<path d="M0 0 C10.56 0 21.12 0 32 0 C32 21.12 32 42.24 32 64 C21.44 64 10.88 64 0 64 C0 74.56 0 85.12 0 96 C-0.33 96 -0.66 96 -1 96 C-1 85.44 -1 74.88 -1 64 C-11.23 64 -21.46 64 -32 64 C-32 53.44 -32 42.88 -32 32 C-21.44 32 -10.88 32 0 32 C0 21.44 0 10.88 0 0 Z " fill="#292E4D" transform="translate(1281,887)"/>
<path d="M0 0 C32.01 0 64.02 0 97 0 C97 10.56 97 21.12 97 32 C64.99 32 32.98 32 0 32 C0 21.44 0 10.88 0 0 Z " fill="#060428" transform="translate(1087,822)"/>
<path d="M0 0 C10.56 0 21.12 0 32 0 C32 32.01 32 64.02 32 97 C21.44 97 10.88 97 0 97 C0 64.99 0 32.98 0 0 Z " fill="#040327" transform="translate(1345,757)"/>
<path d="M0 0 C21.12 0 42.24 0 64 0 C64.76322393 21.37027012 65.09546283 42.61632683 65 64 C54.11 64 43.22 64 32 64 C32 53.44 32 42.88 32 32 C21.44 32 10.88 32 0 32 C0 21.44 0 10.88 0 0 Z " fill="#144E40" transform="translate(829,693)"/>
<path d="M0 0 C31.68 0 63.36 0 96 0 C96 10.56 96 21.12 96 32 C64.32 32 32.64 32 0 32 C0 21.44 0 10.88 0 0 Z " fill="#050327" transform="translate(1152,1370)"/>
<path d="M0 0 C31.68 0 63.36 0 96 0 C96 10.56 96 21.12 96 32 C64.32 32 32.64 32 0 32 C0 21.44 0 10.88 0 0 Z " fill="#050327" transform="translate(668,1370)"/>
<path d="M0 0 C21.12 0 42.24 0 64 0 C64 21.12 64 42.24 64 64 C53.44 64 42.88 64 32 64 C32 53.44 32 42.88 32 32 C21.44 32 10.88 32 0 32 C0 21.44 0 10.88 0 0 Z " fill="#EED79B" transform="translate(571,661)"/>
<path d="M0 0 C31.68 0 63.36 0 96 0 C96 10.56 96 21.12 96 32 C64.32 32 32.64 32 0 32 C0 21.44 0 10.88 0 0 Z " fill="#EFD89B" transform="translate(636,629)"/>
<path d="M0 0 C10.56 0 21.12 0 32 0 C32 21.12 32 42.24 32 64 C10.88 64 -10.24 64 -32 64 C-32 53.44 -32 42.88 -32 32 C-21.44 32 -10.88 32 0 32 C0 21.44 0 10.88 0 0 Z " fill="#EFD79B" transform="translate(958,564)"/>
<path d="M0 0 C21.12 0 42.24 0 64 0 C64 10.56 64 21.12 64 32 C53.11 32 42.22 32 31 32 C31 42.56 31 53.12 31 64 C20.77 64 10.54 64 0 64 C0 42.88 0 21.76 0 0 Z " fill="#050328" transform="translate(991,596)"/>
<path d="M0 0 C31.68 0 63.36 0 96 0 C96 10.23 96 20.46 96 31 C64.32 31 32.64 31 0 31 C0 20.77 0 10.54 0 0 Z " fill="#040327" transform="translate(1184,500)"/>
<path d="M0 0 C21.45 0 42.9 0 65 0 C65 10.56 65 21.12 65 32 C75.56 32 86.12 32 97 32 C97 53.45 97 74.9 97 97 C74.63563896 97.89457444 52.31512517 98.08867266 29.9375 98.0625 C29.2004483 98.06164398 28.46339661 98.06078796 27.70401001 98.05990601 C18.46930737 98.04839504 9.23468297 98.02528511 0 98 C0 86.78 0 75.56 0 64 C10.56 64 21.12 64 32 64 C32 56.08 32 48.16 32 40 C32.33 40 32.66 40 33 40 C33 58.81 33 77.62 33 97 C42.9 96.67 52.8 96.34 63 96 C63.33 86.1 63.66 76.2 64 66 C74.56 65.67 85.12 65.34 96 65 C96 54.44 96 43.88 96 33 C85.44 33 74.88 33 64 33 C64 22.44 64 11.88 64 1 C42.88 1 21.76 1 0 1 C0 0.67 0 0.34 0 0 Z " fill="#735E5A" transform="translate(1087,1176)"/>
<path d="M0 0 C10.89 0 21.78 0 33 0 C33 32.01 33 64.02 33 97 C11.88 97 -9.24 97 -31 97 C-31 107.23 -31 117.46 -31 128 C-31.33 128 -31.66 128 -32 128 C-32 117.44 -32 106.88 -32 96 C-10.88 96 10.24 96 32 96 C32 85.44 32 74.88 32 64 C21.44 64 10.88 64 0 64 C0 42.88 0 21.76 0 0 Z " fill="#194F41" transform="translate(1280,693)"/>
<path d="M0 0 C0.33 0 0.66 0 1 0 C1 21.12 1 42.24 1 64 C11.23 64 21.46 64 32 64 C32 53.44 32 42.88 32 32 C53.45 32 74.9 32 97 32 C97 42.56 97 53.12 97 64 C86.11 64 75.22 64 64 64 C64 53.77 64 43.54 64 33 C53.77 33 43.54 33 33 33 C33 43.56 33 54.12 33 65 C11.28205369 65.09361184 -10.29634931 64.7786063 -32 64 C-32 53.77 -32 43.54 -32 33 C-21.44 33 -10.88 33 0 33 C0 22.11 0 11.22 0 0 Z " fill="#5C9947" transform="translate(990,596)"/>
<path d="M0 0 C21.45 0 42.9 0 65 0 C65 10.56 65 21.12 65 32 C43.55 32 22.1 32 0 32 C0 21.44 0 10.88 0 0 Z " fill="#060429" transform="translate(1248,1338)"/>
<path d="M0 0 C10.56 0 21.12 0 32 0 C32 21.45 32 42.9 32 65 C21.44 65 10.88 65 0 65 C0 43.55 0 22.1 0 0 Z " fill="#080528" transform="translate(507,1015)"/>
<path d="M0 0 C10.56 0 21.12 0 32 0 C32 21.12 32 42.24 32 64 C11.21 64 -9.58 64 -31 64 C-31 63.67 -31 63.34 -31 63 C-21.43 63 -11.86 63 -2 63 C-1.67 61.35 -1.34 59.7 -1 58 C-0.34 58 0.32 58 1 58 C0.96970703 57.41549072 0.93941406 56.83098145 0.90820312 56.22875977 C-0.03090958 37.45914753 -0.07863225 18.79310673 0 0 Z " fill="#637292" transform="translate(1087,951)"/>
<path d="M0 0 C21.12 0 42.24 0 64 0 C64 10.56 64 21.12 64 32 C42.88 32 21.76 32 0 32 C0 21.44 0 10.88 0 0 Z " fill="#E77E53" transform="translate(668,1338)"/>
<path d="M0 0 C21.12 0 42.24 0 64 0 C64 10.56 64 21.12 64 32 C42.88 32 21.76 32 0 32 C0 21.44 0 10.88 0 0 Z " fill="#060428" transform="translate(604,1338)"/>
<path d="M0 0 C21.12 0 42.24 0 64 0 C64 10.56 64 21.12 64 32 C42.88 32 21.76 32 0 32 C0 21.44 0 10.88 0 0 Z " fill="#050328" transform="translate(539,1306)"/>
<path d="M0 0 C21.12 0 42.24 0 64 0 C64 10.56 64 21.12 64 32 C42.88 32 21.76 32 0 32 C0 21.44 0 10.88 0 0 Z " fill="#050328" transform="translate(1313,1306)"/>
<path d="M0 0 C21.12 0 42.24 0 64 0 C64 10.56 64 21.12 64 32 C42.88 32 21.76 32 0 32 C0 21.44 0 10.88 0 0 Z " fill="#060428" transform="translate(765,919)"/>
<path d="M0 0 C21.12 0 42.24 0 64 0 C64 10.56 64 21.12 64 32 C42.88 32 21.76 32 0 32 C0 21.44 0 10.88 0 0 Z " fill="#050328" transform="translate(700,822)"/>
<path d="M0 0 C21.12 0 42.24 0 64 0 C64 10.56 64 21.12 64 32 C42.88 32 21.76 32 0 32 C0 21.44 0 10.88 0 0 Z " fill="#134F41" transform="translate(732,790)"/>
<path d="M0 0 C21.12 0 42.24 0 64 0 C64 10.56 64 21.12 64 32 C42.88 32 21.76 32 0 32 C0 21.44 0 10.88 0 0 Z " fill="#050428" transform="translate(1248,757)"/>
<path d="M0 0 C10.56 0 21.12 0 32 0 C32 21.12 32 42.24 32 64 C21.44 64 10.88 64 0 64 C0 42.88 0 21.76 0 0 Z " fill="#1C2733" transform="translate(571,693)"/>
<path d="M0 0 C21.12 0 42.24 0 64 0 C64 10.56 64 21.12 64 32 C42.88 32 21.76 32 0 32 C0 21.44 0 10.88 0 0 Z " fill="#EFD79B" transform="translate(1184,693)"/>
<path d="M0 0 C21.12 0 42.24 0 64 0 C64 10.56 64 21.12 64 32 C42.88 32 21.76 32 0 32 C0 21.44 0 10.88 0 0 Z " fill="#EFD89B" transform="translate(732,661)"/>
<path d="M0 0 C0 10.89 0 21.78 0 33 C-20.79 33 -41.58 33 -63 33 C-63 22.44 -63 11.88 -63 1 C-58.77574219 1.01160156 -54.55148437 1.02320313 -50.19921875 1.03515625 C-46.83230367 1.04158661 -43.46539032 1.04700963 -40.0984726 1.05175018 C-36.54358184 1.05703215 -32.9887149 1.06409149 -29.43383789 1.07543945 C-25.35562916 1.08837663 -21.27744567 1.09323552 -17.19921875 1.09765625 C-15.92414963 1.10281754 -14.64908051 1.10797882 -13.33537292 1.11329651 C-11.56387627 1.11340981 -11.56387627 1.11340981 -9.7565918 1.11352539 C-8.71512497 1.115746 -7.67365814 1.11796661 -6.60063171 1.12025452 C-4.25762501 1.01191271 -2.26118486 0 0 0 Z " fill="#134F41" transform="translate(1022,821)"/>
<path d="M0 0 C21.12 0 42.24 0 64 0 C64 10.56 64 21.12 64 32 C42.61632683 32.09546283 21.37027012 31.76322393 0 31 C0 20.77 0 10.54 0 0 Z " fill="#1C2734" transform="translate(668,790)"/>
<path d="M0 0 C20.79 0 41.58 0 63 0 C63 10.56 63 21.12 63 32 C42.21 32 21.42 32 0 32 C0 21.44 0 10.88 0 0 Z " fill="#1C2834" transform="translate(604,757)"/>
<path d="M0 0 C21.12 0 42.24 0 64 0 C64 10.23 64 20.46 64 31 C42.88 31 21.76 31 0 31 C0 20.77 0 10.54 0 0 Z " fill="#040227" transform="translate(1184,790)"/>
<path d="M0 0 C21.12 0 42.24 0 64 0 C64 10.23 64 20.46 64 31 C42.88 31 21.76 31 0 31 C0 20.77 0 10.54 0 0 Z " fill="#124F40" transform="translate(668,758)"/>
<path d="M0 0 C10.23 0 20.46 0 31 0 C31 21.12 31 42.24 31 64 C20.77 64 10.54 64 0 64 C0 42.88 0 21.76 0 0 Z " fill="#1B2734" transform="translate(1055,1209)"/>
<path d="M0 0 C31.35 0 62.7 0 95 0 C95 0.33 95 0.66 95 1 C84.44 1 73.88 1 63 1 C63 10.9 63 20.8 63 31 C42.21 31 21.42 31 0 31 C0 20.77 0 10.54 0 0 Z " fill="#124E40" transform="translate(733,629)"/>
<path d="M0 0 C10.23 0 20.46 0 31 0 C31 20.79 31 41.58 31 63 C20.77 63 10.54 63 0 63 C0 42.21 0 21.42 0 0 Z " fill="#040327" transform="translate(1378,1016)"/>
<path d="M0 0 C10.89 0 21.78 0 33 0 C33 10.56 33 21.12 33 32 C22.44 32 11.88 32 1 32 C1 42.56 1 53.12 1 64 C128.38 64 255.76 64 387 64 C387 42.88 387 21.76 387 0 C387.33 0 387.66 0 388 0 C388 10.56 388 21.12 388 32 C419.68 32 451.36 32 484 32 C484 32.33 484 32.66 484 33 C452.32 33 420.64 33 388 33 C388 43.56 388 54.12 388 65 C259.96 65 131.92 65 0 65 C0 54.44 0 43.88 0 33 C-31.68 33 -63.36 33 -96 33 C-96 32.67 -96 32.34 -96 32 C-64.32 32 -32.64 32 0 32 C0 21.44 0 10.88 0 0 Z " fill="#B47463" transform="translate(764,1370)"/>
<path d="M0 0 C127.38 0 254.76 0 386 0 C385.67 10.23 385.34 20.46 385 31 C374.77 31 364.54 31 354 31 C354 21.76 354 12.52 354 3 C343.77 3 333.54 3 323 3 C323 12.24 323 21.48 323 31 C322.34 30.67 321.68 30.34 321 30 C321 21.09 321 12.18 321 3 C289.65 3 258.3 3 226 3 C226 12.24 226 21.48 226 31 C225.34 30.67 224.68 30.34 224 30 C224 20.76 224 11.52 224 2 C150.08 1.67 76.16 1.34 0 1 C0 0.67 0 0.34 0 0 Z " fill="#130E2E" transform="translate(765,1402)"/>
<path d="M0 0 C21.12 0 42.24 0 64 0 C64 0.33 64 0.66 64 1 C53.44 1 42.88 1 32 1 C32 11.23 32 21.46 32 32 C42.56 32 53.12 32 64 32 C64 32.33 64 32.66 64 33 C42.88 33 21.76 33 0 33 C0 22.11 0 11.22 0 0 Z " fill="#EDAE7A" transform="translate(1055,1015)"/>
<path d="M0 0 C10.56 0 21.12 0 32 0 C32 21.45 32 42.9 32 65 C31.67 65 31.34 65 31 65 C31 54.44 31 43.88 31 33 C20.77 33 10.54 33 0 33 C0 22.11 0 11.22 0 0 Z " fill="#5CAA48" transform="translate(765,757)"/>
<path d="M0 0 C1.70209877 0.00333092 1.70209877 0.00333092 3.43858337 0.00672913 C4.71983597 0.00680466 6.00108856 0.00688019 7.32116699 0.00695801 C8.73001646 0.01206542 10.13886554 0.01728143 11.54771423 0.02259827 C12.98118033 0.02446249 14.41464706 0.02588637 15.84811401 0.02688599 C19.62765755 0.03071079 23.40716288 0.04054075 27.18669128 0.05158997 C31.04075097 0.06180489 34.8948168 0.06638378 38.74888611 0.07142639 C46.31596085 0.08216306 53.88300407 0.09923903 61.45005798 0.12025452 C61.45005798 0.45025452 61.45005798 0.78025452 61.45005798 1.12025452 C50.89005798 1.12025452 40.33005798 1.12025452 29.45005798 1.12025452 C29.45005798 11.35025452 29.45005798 21.58025452 29.45005798 32.12025452 C18.56005798 32.12025452 7.67005798 32.12025452 -3.54994202 32.12025452 C-3.57056702 27.02587952 -3.59119202 21.93150452 -3.61244202 16.68275452 C-3.62154602 15.07344055 -3.63065002 13.46412659 -3.64002991 11.80604553 C-3.64252747 10.54977356 -3.64502502 9.29350159 -3.64759827 7.99916077 C-3.65283508 6.70566711 -3.6580719 5.41217346 -3.66346741 4.07948303 C-3.51332179 0.16568722 -3.51332179 0.16568722 0 0 Z " fill="#F3B07A" transform="translate(1122.5499420166016,917.8797454833984)"/>
<path d="M0 0 C10.56 0 21.12 0 32 0 C32 10.56 32 21.12 32 32 C10.88 32 -10.24 32 -32 32 C-32 31.67 -32 31.34 -32 31 C-21.44 31 -10.88 31 0 31 C0 20.77 0 10.54 0 0 Z " fill="#705957" transform="translate(1119,1274)"/>
<path d="M0 0 C10.89 0 21.78 0 33 0 C33 10.56 33 21.12 33 32 C22.11 32 11.22 32 0 32 C0 21.44 0 10.88 0 0 Z " fill="#424C6F" transform="translate(861,983)"/>
<path d="M0 0 C10.56 0 21.12 0 32 0 C32 10.89 32 21.78 32 33 C21.44 33 10.88 33 0 33 C0 22.11 0 11.22 0 0 Z " fill="#F0D79C" transform="translate(1087,789)"/>
<path d="M0 0 C10.89 0 21.78 0 33 0 C33 10.56 33 21.12 33 32 C22.11 32 11.22 32 0 32 C0 21.44 0 10.88 0 0 Z " fill="#155141" transform="translate(1022,693)"/>
<path d="M0 0 C10.56 0 21.12 0 32 0 C32 21.12 32 42.24 32 64 C31.67 64 31.34 64 31 64 C31 53.44 31 42.88 31 32 C20.77 32 10.54 32 0 32 C0 21.44 0 10.88 0 0 Z " fill="#5CAB48" transform="translate(636,693)"/>
<path d="M0 0 C10.89 0 21.78 0 33 0 C33 10.56 33 21.12 33 32 C22.11 32 11.22 32 0 32 C0 21.44 0 10.88 0 0 Z " fill="#F2B079" transform="translate(990,661)"/>
<path d="M0 0 C10.89 0 21.78 0 33 0 C32.67 10.56 32.34 21.12 32 32 C21.44 32 10.88 32 0 32 C0 21.44 0 10.88 0 0 Z " fill="#F3B07A" transform="translate(1119,983)"/>
<path d="M0 0 C10.56 0 21.12 0 32 0 C32 10.56 32 21.12 32 32 C21.44 32 10.88 32 0 32 C0 21.44 0 10.88 0 0 Z " fill="#6E5656" transform="translate(1055,1338)"/>
<path d="M0 0 C10.56 0 21.12 0 32 0 C32 10.56 32 21.12 32 32 C21.44 32 10.88 32 0 32 C0 21.44 0 10.88 0 0 Z " fill="#F4B179" transform="translate(1216,1338)"/>
<path d="M0 0 C10.56 0 21.12 0 32 0 C32 10.56 32 21.12 32 32 C21.44 32 10.88 32 0 32 C0 21.44 0 10.88 0 0 Z " fill="#050328" transform="translate(1377,1273)"/>
<path d="M0 0 C10.56 0 21.12 0 32 0 C32 10.56 32 21.12 32 32 C21.44 32 10.88 32 0 32 C0 21.44 0 10.88 0 0 Z " fill="#080528" transform="translate(507,1273)"/>
<path d="M0 0 C10.56 0 21.12 0 32 0 C32 10.56 32 21.12 32 32 C21.44 32 10.88 32 0 32 C0 21.44 0 10.88 0 0 Z " fill="#B96348" transform="translate(1345,1273)"/>
<path d="M0 0 C10.56 0 21.12 0 32 0 C32 10.56 32 21.12 32 32 C21.44 32 10.88 32 0 32 C0 21.44 0 10.88 0 0 Z " fill="#1C2834" transform="translate(958,1241)"/>
<path d="M0 0 C10.56 0 21.12 0 32 0 C32 10.56 32 21.12 32 32 C21.44 32 10.88 32 0 32 C0 21.44 0 10.88 0 0 Z " fill="#F4B17A" transform="translate(1345,1241)"/>
<path d="M0 0 C10.56 0 21.12 0 32 0 C32 10.56 32 21.12 32 32 C21.44 32 10.88 32 0 32 C0 21.44 0 10.88 0 0 Z " fill="#EFD79B" transform="translate(1087,1241)"/>
<path d="M0 0 C10.56 0 21.12 0 32 0 C32 10.56 32 21.12 32 32 C21.44 32 10.88 32 0 32 C0 21.44 0 10.88 0 0 Z " fill="#1D2834" transform="translate(958,1144)"/>
<path d="M0 0 C10.56 0 21.12 0 32 0 C32 10.56 32 21.12 32 32 C21.44 32 10.88 32 0 32 C0 21.44 0 10.88 0 0 Z " fill="#F0D89C" transform="translate(1023,1112)"/>
<path d="M0 0 C10.56 0 21.12 0 32 0 C32 10.56 32 21.12 32 32 C21.44 32 10.88 32 0 32 C0 21.44 0 10.88 0 0 Z " fill="#1D2934" transform="translate(1119,1080)"/>
<path d="M0 0 C10.56 0 21.12 0 32 0 C32 10.56 32 21.12 32 32 C21.44 32 10.88 32 0 32 C0 21.44 0 10.88 0 0 Z " fill="#EFD79B" transform="translate(990,1080)"/>
<path d="M0 0 C10.56 0 21.12 0 32 0 C32 10.56 32 21.12 32 32 C21.44 32 10.88 32 0 32 C0 21.44 0 10.88 0 0 Z " fill="#050328" transform="translate(539,983)"/>
<path d="M0 0 C10.56 0 21.12 0 32 0 C32 10.56 32 21.12 32 32 C21.44 32 10.88 32 0 32 C0 21.44 0 10.88 0 0 Z " fill="#050428" transform="translate(1345,983)"/>
<path d="M0 0 C10.56 0 21.12 0 32 0 C32 10.56 32 21.12 32 32 C21.44 32 10.88 32 0 32 C0 21.44 0 10.88 0 0 Z " fill="#424C6F" transform="translate(1087,951)"/>
<path d="M0 0 C10.56 0 21.12 0 32 0 C32 10.56 32 21.12 32 32 C21.44 32 10.88 32 0 32 C0 21.44 0 10.88 0 0 Z " fill="#060328" transform="translate(571,951)"/>
<path d="M0 0 C10.56 0 21.12 0 32 0 C32 10.56 32 21.12 32 32 C21.44 32 10.88 32 0 32 C0 21.44 0 10.88 0 0 Z " fill="#E57D54" transform="translate(1152,919)"/>
<path d="M0 0 C10.56 0 21.12 0 32 0 C32 10.56 32 21.12 32 32 C21.44 32 10.88 32 0 32 C0 21.44 0 10.88 0 0 Z " fill="#E67D54" transform="translate(829,919)"/>
<path d="M0 0 C10.56 0 21.12 0 32 0 C32 10.56 32 21.12 32 32 C21.44 32 10.88 32 0 32 C0 21.44 0 10.88 0 0 Z " fill="#E87F54" transform="translate(1248,886)"/>
<path d="M0 0 C10.56 0 21.12 0 32 0 C32 10.56 32 21.12 32 32 C21.44 32 10.88 32 0 32 C0 21.44 0 10.88 0 0 Z " fill="#E87E54" transform="translate(1184,822)"/>
<path d="M0 0 C10.56 0 21.12 0 32 0 C32 10.56 32 21.12 32 32 C21.44 32 10.88 32 0 32 C0 21.44 0 10.88 0 0 Z " fill="#F3B079" transform="translate(1055,822)"/>
<path d="M0 0 C10.56 0 21.12 0 32 0 C32 10.56 32 21.12 32 32 C21.44 32 10.88 32 0 32 C0 21.44 0 10.88 0 0 Z " fill="#F3B079" transform="translate(829,822)"/>
<path d="M0 0 C10.56 0 21.12 0 32 0 C32 10.56 32 21.12 32 32 C21.44 32 10.88 32 0 32 C0 21.44 0 10.88 0 0 Z " fill="#135041" transform="translate(797,822)"/>
<path d="M0 0 C10.56 0 21.12 0 32 0 C32 10.56 32 21.12 32 32 C21.44 32 10.88 32 0 32 C0 21.44 0 10.88 0 0 Z " fill="#135041" transform="translate(1087,822)"/>
<path d="M0 0 C10.56 0 21.12 0 32 0 C32 10.56 32 21.12 32 32 C21.44 32 10.88 32 0 32 C0 21.44 0 10.88 0 0 Z " fill="#F2B079" transform="translate(797,790)"/>
<path d="M0 0 C10.56 0 21.12 0 32 0 C32 10.56 32 21.12 32 32 C21.44 32 10.88 32 0 32 C0 21.44 0 10.88 0 0 Z " fill="#EFD79B" transform="translate(1119,757)"/>
<path d="M0 0 C10.56 0 21.12 0 32 0 C32 10.56 32 21.12 32 32 C21.44 32 10.88 32 0 32 C0 21.44 0 10.88 0 0 Z " fill="#EFD79B" transform="translate(829,725)"/>
<path d="M0 0 C10.56 0 21.12 0 32 0 C32 10.56 32 21.12 32 32 C21.44 32 10.88 32 0 32 C0 21.44 0 10.88 0 0 Z " fill="#EFD89B" transform="translate(1151,725)"/>
<path d="M0 0 C10.56 0 21.12 0 32 0 C32 10.56 32 21.12 32 32 C21.44 32 10.88 32 0 32 C0 21.44 0 10.88 0 0 Z " fill="#F3B179" transform="translate(1023,725)"/>
<path d="M0 0 C10.56 0 21.12 0 32 0 C32 10.56 32 21.12 32 32 C21.44 32 10.88 32 0 32 C0 21.44 0 10.88 0 0 Z " fill="#EFD89B" transform="translate(668,725)"/>
<path d="M0 0 C10.56 0 21.12 0 32 0 C32 10.56 32 21.12 32 32 C21.44 32 10.88 32 0 32 C0 21.44 0 10.88 0 0 Z " fill="#050427" transform="translate(862,725)"/>
<path d="M0 0 C10.56 0 21.12 0 32 0 C32 10.56 32 21.12 32 32 C21.44 32 10.88 32 0 32 C0 21.44 0 10.88 0 0 Z " fill="#5CAC47" transform="translate(700,725)"/>
<path d="M0 0 C10.56 0 21.12 0 32 0 C32 10.56 32 21.12 32 32 C21.44 32 10.88 32 0 32 C0 21.44 0 10.88 0 0 Z " fill="#060428" transform="translate(829,693)"/>
<path d="M0 0 C10.56 0 21.12 0 32 0 C32 10.56 32 21.12 32 32 C21.44 32 10.88 32 0 32 C0 21.44 0 10.88 0 0 Z " fill="#EFD79B" transform="translate(797,693)"/>
<path d="M0 0 C10.56 0 21.12 0 32 0 C32 10.56 32 21.12 32 32 C21.44 32 10.88 32 0 32 C0 21.44 0 10.88 0 0 Z " fill="#5CAC47" transform="translate(990,693)"/>
<path d="M0 0 C10.56 0 21.12 0 32 0 C32 10.56 32 21.12 32 32 C21.44 32 10.88 32 0 32 C0 21.44 0 10.88 0 0 Z " fill="#F3B179" transform="translate(894,693)"/>
<path d="M0 0 C10.56 0 21.12 0 32 0 C32 10.56 32 21.12 32 32 C21.44 32 10.88 32 0 32 C0 21.44 0 10.88 0 0 Z " fill="#124F40" transform="translate(571,693)"/>
<path d="M0 0 C10.56 0 21.12 0 32 0 C32 10.56 32 21.12 32 32 C21.44 32 10.88 32 0 32 C0 21.44 0 10.88 0 0 Z " fill="#F3B179" transform="translate(1055,661)"/>
<path d="M0 0 C10.56 0 21.12 0 32 0 C32 10.56 32 21.12 32 32 C21.44 32 10.88 32 0 32 C0 21.44 0 10.88 0 0 Z " fill="#EFD79B" transform="translate(829,628)"/>
<path d="M0 0 C10.56 0 21.12 0 32 0 C32 10.56 32 21.12 32 32 C21.44 32 10.88 32 0 32 C0 21.44 0 10.88 0 0 Z " fill="#EED69B" transform="translate(1119,596)"/>
<path d="M0 0 C10.56 0 21.12 0 32 0 C32 10.56 32 21.12 32 32 C21.44 32 10.88 32 0 32 C0 21.44 0 10.88 0 0 Z " fill="#050428" transform="translate(1087,596)"/>
<path d="M0 0 C10.56 0 21.12 0 32 0 C32 10.56 32 21.12 32 32 C21.44 32 10.88 32 0 32 C0 21.44 0 10.88 0 0 Z " fill="#5CAC47" transform="translate(926,596)"/>
<path d="M0 0 C10.56 0 21.12 0 32 0 C32 10.56 32 21.12 32 32 C21.44 32 10.88 32 0 32 C0 21.44 0 10.88 0 0 Z " fill="#5CAD47" transform="translate(1152,596)"/>
<path d="M0 0 C10.56 0 21.12 0 32 0 C32 10.56 32 21.12 32 32 C21.44 32 10.88 32 0 32 C0 21.44 0 10.88 0 0 Z " fill="#5BAC46" transform="translate(1184,564)"/>
<path d="M0 0 C10.56 0 21.12 0 32 0 C32 10.56 32 21.12 32 32 C21.44 32 10.88 32 0 32 C0 21.44 0 10.88 0 0 Z " fill="#EFD79B" transform="translate(1152,564)"/>
<path d="M0 0 C10.56 0 21.12 0 32 0 C32 10.56 32 21.12 32 32 C21.44 32 10.88 32 0 32 C0 21.44 0 10.88 0 0 Z " fill="#060428" transform="translate(1119,564)"/>
<path d="M0 0 C10.56 0 21.12 0 32 0 C32 10.56 32 21.12 32 32 C21.44 32 10.88 32 0 32 C0 21.44 0 10.88 0 0 Z " fill="#050328" transform="translate(958,564)"/>
<path d="M0 0 C10.56 0 21.12 0 32 0 C32 10.56 32 21.12 32 32 C21.44 32 10.88 32 0 32 C0 21.44 0 10.88 0 0 Z " fill="#080629" transform="translate(1281,532)"/>
<path d="M0 0 C10.56 0 21.12 0 32 0 C32 10.56 32 21.12 32 32 C21.44 32 10.88 32 0 32 C0 21.44 0 10.88 0 0 Z " fill="#080629" transform="translate(1152,532)"/>
<path d="M0 0 C10.56 0 21.12 0 32 0 C32 10.56 32 21.12 32 32 C26.905625 32.020625 21.81125 32.04125 16.5625 32.0625 C14.95318604 32.071604 13.34387207 32.08070801 11.68579102 32.09008789 C10.42951904 32.09258545 9.17324707 32.09508301 7.87890625 32.09765625 C5.93866577 32.10551147 5.93866577 32.10551147 3.95922852 32.11352539 C1 32 1 32 0 31 C-0.08790975 28.70848583 -0.10694038 26.41427476 -0.09765625 24.12109375 C-0.09515869 22.86482178 -0.09266113 21.6085498 -0.09008789 20.31420898 C-0.08098389 18.70489502 -0.07187988 17.09558105 -0.0625 15.4375 C-0.041875 10.343125 -0.02125 5.24875 0 0 Z " fill="#F4B17A" transform="translate(1119,1370)"/>
<path d="M0 0 C10.56 0 21.12 0 32 0 C32 10.56 32 21.12 32 32 C26.905625 32.020625 21.81125 32.04125 16.5625 32.0625 C14.95318604 32.071604 13.34387207 32.08070801 11.68579102 32.09008789 C10.42951904 32.09258545 9.17324707 32.09508301 7.87890625 32.09765625 C5.93866577 32.10551147 5.93866577 32.10551147 3.95922852 32.11352539 C1 32 1 32 0 31 C-0.08790975 28.70848583 -0.10694038 26.41427476 -0.09765625 24.12109375 C-0.09515869 22.86482178 -0.09266113 21.6085498 -0.09008789 20.31420898 C-0.08098389 18.70489502 -0.07187988 17.09558105 -0.0625 15.4375 C-0.041875 10.343125 -0.02125 5.24875 0 0 Z " fill="#1B2733" transform="translate(1119,1177)"/>
<path d="M0 0 C10.56 0 21.12 0 32 0 C32 10.56 32 21.12 32 32 C26.905625 32.020625 21.81125 32.04125 16.5625 32.0625 C14.95318604 32.071604 13.34387207 32.08070801 11.68579102 32.09008789 C10.42951904 32.09258545 9.17324707 32.09508301 7.87890625 32.09765625 C5.93866577 32.10551147 5.93866577 32.10551147 3.95922852 32.11352539 C1 32 1 32 0 31 C-0.08790975 28.70848583 -0.10694038 26.41427476 -0.09765625 24.12109375 C-0.09515869 22.86482178 -0.09266113 21.6085498 -0.09008789 20.31420898 C-0.08098389 18.70489502 -0.07187988 17.09558105 -0.0625 15.4375 C-0.041875 10.343125 -0.02125 5.24875 0 0 Z " fill="#5CAC47" transform="translate(1087,661)"/>
<path d="M0 0 C10.23 0 20.46 0 31 0 C31 10.56 31 21.12 31 32 C20.77 32 10.54 32 0 32 C0 21.44 0 10.88 0 0 Z " fill="#1B2733" transform="translate(1152,1209)"/>
<path d="M0 0 C10.23 0 20.46 0 31 0 C31 10.56 31 21.12 31 32 C20.77 32 10.54 32 0 32 C0 21.44 0 10.88 0 0 Z " fill="#040327" transform="translate(604,822)"/>
<path d="M0 0 C10.56 0 21.12 0 32 0 C32 10.23 32 20.46 32 31 C21.44 31 10.88 31 0 31 C0 20.77 0 10.54 0 0 Z " fill="#F3B17A" transform="translate(861,758)"/>
<path d="M0 0 C10.23 0 20.46 0 31 0 C31 10.56 31 21.12 31 32 C20.77 32 10.54 32 0 32 C0 21.44 0 10.88 0 0 Z " fill="#050327" transform="translate(894,757)"/>
<path d="M0 0 C10.23 0 20.46 0 31 0 C31 10.56 31 21.12 31 32 C20.77 32 10.54 32 0 32 C0 21.44 0 10.88 0 0 Z " fill="#F0D89C" transform="translate(733,757)"/>
<path d="M0 0 C10.56 0 21.12 0 32 0 C32 10.23 32 20.46 32 31 C21.44 31 10.88 31 0 31 C0 20.77 0 10.54 0 0 Z " fill="#F0D79C" transform="translate(1087,629)"/>
<path d="M0 0 C10.56 0 21.12 0 32 0 C32 10.23 32 20.46 32 31 C21.44 31 10.88 31 0 31 C0 20.77 0 10.54 0 0 Z " fill="#050327" transform="translate(1055,629)"/>
<path d="M0 0 C0 10.56 0 21.12 0 32 C-4.929375 32.020625 -9.85875 32.04125 -14.9375 32.0625 C-17.2731604 32.07615601 -17.2731604 32.07615601 -19.65600586 32.09008789 C-21.47950562 32.09383423 -21.47950562 32.09383423 -23.33984375 32.09765625 C-24.59144287 32.10289307 -25.84304199 32.10812988 -27.13256836 32.11352539 C-30 32 -30 32 -31 31 C-31.08783542 28.78144736 -31.10694609 26.56011504 -31.09765625 24.33984375 C-31.0962413 23.67537735 -31.09482635 23.01091095 -31.09336853 22.3263092 C-31.08775518 20.19666101 -31.07520054 18.06711661 -31.0625 15.9375 C-31.05748671 14.49674631 -31.05292351 13.05599097 -31.04882812 11.61523438 C-31.03778145 8.07678898 -31.02050792 4.53840461 -31 1 C-26.90659073 0.8571448 -22.81316608 0.71473966 -18.71972656 0.57275391 C-17.3268186 0.52437552 -15.93391492 0.47587355 -14.54101562 0.42724609 C-12.54037587 0.3574232 -10.53971941 0.28807969 -8.5390625 0.21875 C-6.73236084 0.1559082 -6.73236084 0.1559082 -4.88916016 0.09179688 C-3.25997501 0.04003301 -1.63000728 0 0 0 Z " fill="#124F40" transform="translate(796,596)"/>
<path d="M0 0 C10.23 0 20.46 0 31 0 C31 10.23 31 20.46 31 31 C20.77 31 10.54 31 0 31 C0 20.77 0 10.54 0 0 Z " fill="#1B2733" transform="translate(991,1177)"/>
<path d="M0 0 C10.23 0 20.46 0 31 0 C31 10.23 31 20.46 31 31 C20.77 31 10.54 31 0 31 C0 20.77 0 10.54 0 0 Z " fill="#1B2733" transform="translate(1023,1016)"/>
<path d="M0 0 C10.23 0 20.46 0 31 0 C31 10.23 31 20.46 31 31 C20.77 31 10.54 31 0 31 C0 20.77 0 10.54 0 0 Z " fill="#F0D89C" transform="translate(862,661)"/>
<path d="M0 0 C10.23 0 20.46 0 31 0 C31 10.23 31 20.46 31 31 C20.77 31 10.54 31 0 31 C0 20.77 0 10.54 0 0 Z " fill="#040327" transform="translate(733,629)"/>
<path d="M0 0 C10.23 0 20.46 0 31 0 C31 10.23 31 20.46 31 31 C20.77 31 10.54 31 0 31 C0 20.77 0 10.54 0 0 Z " fill="#5BAC46" transform="translate(1120,629)"/>
<path d="M0 0 C0.33 0 0.66 0 1 0 C1 10.56 1 21.12 1 32 C11.56 32 22.12 32 33 32 C33 117.14 33 202.28 33 290 C43.23 290 53.46 290 64 290 C64 226.31 64 162.62 64 97 C64.33 97 64.66 97 65 97 C65 161.02 65 225.04 65 291 C54.44 291 43.88 291 33 291 C33 301.56 33 312.12 33 323 C22.44 323 11.88 323 1 323 C1 333.56 1 344.12 1 355 C0.67 355 0.34 355 0 355 C0 344.44 0 333.88 0 323 C-21.12 323 -42.24 323 -64 323 C-64 322.67 -64 322.34 -64 322 C-32.32 322 -0.64 322 32 322 C32 247.75 32 173.5 32 97 C21.44 97 10.88 97 0 97 C0 75.88 0 54.76 0 33 C-10.56 33 -21.12 33 -32 33 C-32 32.67 -32 32.34 -32 32 C-21.44 32 -10.88 32 0 32 C0 21.44 0 10.88 0 0 Z M1 33 C1 53.79 1 74.58 1 96 C11.23 96 21.46 96 32 96 C32 75.21 32 54.42 32 33 C21.77 33 11.54 33 1 33 Z " fill="#5D4D5C" transform="translate(1377,983)"/>
<path d="M0 0 C0.33 0 0.66 0 1 0 C1 21.45 1 42.9 1 65 C-9.56 65 -20.12 65 -31 65 C-31 75.23 -31 85.46 -31 96 C-20.77 96 -10.54 96 0 96 C0 86.1 0 76.2 0 66 C0.33 66 0.66 66 1 66 C1 75.9 1 85.8 1 96 C9.58 96 18.16 96 27 96 C27 85.77 27 75.54 27 65 C18.75 65 10.5 65 2 65 C2 64.67 2 64.34 2 64 C11.9 64 21.8 64 32 64 C32 74.56 32 85.12 32 96 C27.4876049 97.80495804 25.70850751 98.23547947 21.1081543 98.13525391 C19.36691536 98.10499619 19.36691536 98.10499619 17.59049988 98.0741272 C16.34762711 98.04193085 15.10475433 98.0097345 13.82421875 97.9765625 C12.54392288 97.95153656 11.26362701 97.92651062 9.9445343 97.90072632 C6.55280294 97.83431056 3.16147602 97.75536833 -0.22991943 97.67376709 C-3.69543984 97.59261616 -7.16119527 97.52326557 -10.62695312 97.453125 C-17.41835432 97.31481554 -24.20890096 97.15689707 -31 97 C-31 107.56 -31 118.12 -31 129 C-31.33 129 -31.66 129 -32 129 C-32 107.88 -32 86.76 -32 65 C-53.12 65 -74.24 65 -96 65 C-96 64.67 -96 64.34 -96 64 C-64.32 64 -32.64 64 0 64 C0 42.88 0 21.76 0 0 Z " fill="#205A47" transform="translate(990,725)"/>
<path d="M0 0 C32.34 0 64.68 0 98 0 C98 10.56 98 21.12 98 32 C108.56 32 119.12 32 130 32 C130 32.33 130 32.66 130 33 C119.44 33 108.88 33 98 33 C98 43.56 98 54.12 98 65 C97.67 65 97.34 65 97 65 C97 54.44 97 43.88 97 33 C54.76 33 12.52 33 -31 33 C-31 54.12 -31 75.24 -31 97 C-31.33 97 -31.66 97 -32 97 C-32 86.44 -32 75.88 -32 65 C-42.56 65 -53.12 65 -64 65 C-64 64.67 -64 64.34 -64 64 C-53.44 64 -42.88 64 -32 64 C-32 53.44 -32 42.88 -32 32 C-21.44 32 -10.88 32 0 32 C0 21.44 0 10.88 0 0 Z M1 1 C1 11.23 1 21.46 1 32 C32.68 32 64.36 32 97 32 C97 21.77 97 11.54 97 1 C65.32 1 33.64 1 1 1 Z " fill="#716C75" transform="translate(1183,499)"/>
<path d="M0 0 C64.02 0 128.04 0 194 0 C194 0.33 194 0.66 194 1 C130.31 1 66.62 1 1 1 C1 11.56 1 22.12 1 33 C10.57 33 20.14 33 30 33 C30 33.33 30 33.66 30 34 C20.43 34 10.86 34 1 34 C1.33 43.9 1.66 53.8 2 64 C11.9 64.33 21.8 64.66 32 65 C32 54.44 32 43.88 32 33 C32.33 33 32.66 33 33 33 C33 43.56 33 54.12 33 65 C43.56 65 54.12 65 65 65 C65 75.89 65 86.78 65 98 C64.67 98 64.34 98 64 98 C64 87.44 64 76.88 64 66 C43.54 66 23.08 66 2 66 C2 75.9 2 85.8 2 96 C1.67 96 1.34 96 1 96 C-0.0661324 64.01602788 0 32.00173606 0 0 Z " fill="#3F574F" transform="translate(764,563)"/>
<path d="M0 0 C21.45 0 42.9 0 65 0 C65 0.33 65 0.66 65 1 C43.88 1 22.76 1 1 1 C1 11.23 1 21.46 1 32 C22.12 32 43.24 32 65 32 C65 32.33 65 32.66 65 33 C43.88 33 22.76 33 1 33 C1 42.9 1 52.8 1 63 C0.67 63 0.34 63 0 63 C0 53.1 0 43.2 0 33 C-20.79 33 -41.58 33 -63 33 C-63 43.23 -63 53.46 -63 64 C-62.34 64.33 -61.68 64.66 -61 65 C-61.66 65 -62.32 65 -63 65 C-63 75.56 -63 86.12 -63 97 C-63.33 97 -63.66 97 -64 97 C-64 86.44 -64 75.88 -64 65 C-85.12 65 -106.24 65 -128 65 C-128 64.67 -128 64.34 -128 64 C-106.88 64 -85.76 64 -64 64 C-64 43.21 -64 22.42 -64 1 C-63.67 1 -63.34 1 -63 1 C-63 11.23 -63 21.46 -63 32 C-42.21 32 -21.42 32 0 32 C0 21.44 0 10.88 0 0 Z " fill="#274E46" transform="translate(667,757)"/>
<path d="M0 0 C21.45 0 42.9 0 65 0 C65 0.33 65 0.66 65 1 C43.88 1 22.76 1 1 1 C2.02973475 2.25249942 2.02973475 2.25249942 4.24623108 2.12025452 C5.23884445 2.11803391 6.23145782 2.11581329 7.25415039 2.11352539 C8.93578026 2.11341209 8.93578026 2.11341209 10.65138245 2.11329651 C11.8711528 2.10813522 13.09092316 2.10297394 14.34765625 2.09765625 C15.58921982 2.0962413 16.83078339 2.09482635 18.10997009 2.09336853 C21.41605491 2.08870591 24.72207146 2.07971497 28.02813721 2.06866455 C31.3996115 2.05844827 34.77109283 2.05387045 38.14257812 2.04882812 C44.76173775 2.03777395 51.38086493 2.02101736 58 2 C58 2.99 58 3.98 58 5 C39.19 5 20.38 5 1 5 C1 13.91 1 22.82 1 32 C22.12 32 43.24 32 65 32 C65 32.33 65 32.66 65 33 C43.55 33 22.1 33 0 33 C0 22.11 0 11.22 0 0 Z " fill="#434948" transform="translate(990,1273)"/>
<path d="M0 0 C10.56 0 21.12 0 32 0 C32 0.33 32 0.66 32 1 C30.87972412 1.03758423 30.87972412 1.03758423 29.73681641 1.07592773 C26.36602733 1.19168213 22.99553217 1.31450128 19.625 1.4375 C18.449375 1.47681641 17.27375 1.51613281 16.0625 1.55664062 C14.94101563 1.59853516 13.81953125 1.64042969 12.6640625 1.68359375 C11.10872803 1.73858032 11.10872803 1.73858032 9.52197266 1.79467773 C7.00574834 1.84164223 7.00574834 1.84164223 5 3 C4.67 12.57 4.34 22.14 4 32 C12.91 32 21.82 32 31 32 C31 32.33 31 32.66 31 33 C21.1 33 11.2 33 1 33 C1 43.23 1 53.46 1 64 C10.9 64 20.8 64 31 64 C31 64.33 31 64.66 31 65 C21.1 65 11.2 65 1 65 C1 75.56 1 86.12 1 97 C0.67 97 0.34 97 0 97 C0 64.99 0 32.98 0 0 Z " fill="#0E0A2B" transform="translate(1345,757)"/>
<path d="M0 0 C20.79 0 41.58 0 63 0 C63 0.33 63 0.66 63 1 C42.54 1 22.08 1 1 1 C2.32 1.33 3.64 1.66 5 2 C5 11.24 5 20.48 5 30 C18.365 30.495 18.365 30.495 32 31 C32 52.45 32 73.9 32 96 C31.67 96 31.34 96 31 96 C31 74.88 31 53.76 31 32 C20.44 32 9.88 32 -1 32 C-0.67 21.44 -0.34 10.88 0 0 Z " fill="#EC895C" transform="translate(1249,790)"/>
<path d="M0 0 C0.33 0 0.66 0 1 0 C1 21.12 1 42.24 1 64 C-20.45 64 -41.9 64 -64 64 C-64 63.67 -64 63.34 -64 63 C-53.44 63 -42.88 63 -32 63 C-32.03959822 52.84286908 -32.03959822 52.84286908 -32.09008789 42.68579102 C-32.09258545 41.42951904 -32.09508301 40.17324707 -32.09765625 38.87890625 C-32.10551147 36.93866577 -32.10551147 36.93866577 -32.11352539 34.95922852 C-32 32 -32 32 -31 31 C-28.70848583 30.91209025 -26.41427476 30.89305962 -24.12109375 30.90234375 C-22.86482178 30.90484131 -21.6085498 30.90733887 -20.31420898 30.90991211 C-18.70489502 30.91901611 -17.09558105 30.92812012 -15.4375 30.9375 C-10.343125 30.958125 -5.24875 30.97875 0 31 C0 20.77 0 10.54 0 0 Z M-31 32 C-31 41.9 -31 51.8 -31 62 C-21.1 62 -11.2 62 -1 62 C-1 52.1 -1 42.2 -1 32 C-10.9 32 -20.8 32 -31 32 Z " fill="#DBAC7D" transform="translate(1312,1274)"/>
<path d="M0 0 C0.33 0 0.66 0 1 0 C1 21.12 1 42.24 1 64 C0.67 64 0.34 64 0 64 C-0.495 48.655 -0.495 48.655 -1 33 C-10.57 33 -20.14 33 -30 33 C-30 53.46 -30 73.92 -30 95 C-30.99 95.495 -30.99 95.495 -32 96 C-32.02312684 87.67271053 -32.04091683 79.34543437 -32.05181217 71.01812077 C-32.05704026 67.15179882 -32.06413654 63.28549879 -32.07543945 59.41918945 C-32.086271 55.69096599 -32.0922774 51.96276366 -32.09487724 48.23452568 C-32.09673101 46.80910344 -32.10035071 45.38368241 -32.10573006 43.95826912 C-32.11294393 41.96836592 -32.11340808 39.97844166 -32.11352539 37.98852539 C-32.115746 36.85379288 -32.11796661 35.71906036 -32.12025452 34.54994202 C-32 32 -32 32 -31 31 C-28.70848583 30.91209025 -26.41427476 30.89305962 -24.12109375 30.90234375 C-22.86482178 30.90484131 -21.6085498 30.90733887 -20.31420898 30.90991211 C-18.70489502 30.91901611 -17.09558105 30.92812012 -15.4375 30.9375 C-10.343125 30.958125 -5.24875 30.97875 0 31 C0 20.77 0 10.54 0 0 Z " fill="#0D0C2F" transform="translate(957,790)"/>
<path d="M0 0 C2.41902911 3.62854366 2.25945207 6.23466776 2.20254517 10.42204285 C2.20017046 11.18414686 2.19779576 11.94625087 2.1953491 12.73144895 C2.18490756 15.29271212 2.16002772 17.85363321 2.13525391 20.41479492 C2.12483095 22.24772172 2.11529514 24.08065375 2.10658264 25.91358948 C2.08037087 30.89681253 2.04170534 35.8798713 2.00085878 40.862993 C1.96029327 46.06798625 1.93110471 51.27304276 1.90072632 56.47810364 C1.84144411 66.33787402 1.77188146 76.1975442 1.69865549 86.0572198 C1.61579889 97.28072701 1.54435695 108.5042977 1.47388959 119.72788846 C1.32865735 142.81868569 1.16903918 165.90936566 1 189 C1.99 189.33 2.98 189.66 4 190 C4 190.33 4 190.66 4 191 C13.57 191 23.14 191 33 191 C32.67 191.66 32.34 192.32 32 193 C21.44 193 10.88 193 0 193 C0 129.31 0 65.62 0 0 Z " fill="#D7D9D8" transform="translate(1346,564)"/>
<path d="M0 0 C0.33 0 0.66 0 1 0 C1 20.46 1 40.92 1 62 C10.24 62 19.48 62 29 62 C29 62.33 29 62.66 29 63 C19.43 63.33 9.86 63.66 0 64 C0 54.1 0 44.2 0 34 C-9.9 34 -19.8 34 -30 34 C-29.67 43.9 -29.34 53.8 -29 64 C-29.99 64 -30.98 64 -32 64 C-32 53.44 -32 42.88 -32 32 C-21.44 32 -10.88 32 0 32 C0 21.44 0 10.88 0 0 Z " fill="#1D1C3B" transform="translate(603,596)"/>
<path d="M0 0 C20.79 0 41.58 0 63 0 C63 21.12 63 42.24 63 64 C62.34 64 61.68 64 61 64 C61 44.53 61 25.06 61 5 C60.67 5.66 60.34 6.32 60 7 C59.34 7 58.68 7 58 7 C58 6.01 58 5.02 58 4 C58.99 4 59.98 4 61 4 C60.01 3.67 59.02 3.34 58 3 C58 2.34 58 1.68 58 1 C38.86 1 19.72 1 0 1 C0 0.67 0 0.34 0 0 Z " fill="#E5D097" transform="translate(992,1209)"/>
<path d="M0 0 C10.56 0 21.12 0 32 0 C32 0.33 32 0.66 32 1 C21.77 1 11.54 1 1 1 C1 10.24 1 19.48 1 29 C9.37659588 28.92102299 9.37659588 28.92102299 17.75292969 28.81982422 C18.79868164 28.8148291 19.84443359 28.80983398 20.921875 28.8046875 C21.99018555 28.79421387 23.05849609 28.78374023 24.15917969 28.77294922 C26.97979105 28.99838481 28.60787463 29.54151006 31 31 C31.33 30.01 31.66 29.02 32 28 C32 29.65 32 31.3 32 33 C21.44 33 10.88 33 0 33 C0 22.11 0 11.22 0 0 Z " fill="#DDD194" transform="translate(1087,789)"/>
<path d="M0 0 C10.56 0 21.12 0 32 0 C31.67 0.99 31.34 1.98 31 3 C21.43 2.67 11.86 2.34 2 2 C2 11.57 2 21.14 2 31 C11.57 31 21.14 31 31 31 C31 22.75 31 14.5 31 6 C31.33 6 31.66 6 32 6 C32 14.58 32 23.16 32 32 C21.44 32 10.88 32 0 32 C0 21.44 0 10.88 0 0 Z " fill="#120B27" transform="translate(1377,1273)"/>
<path d="M0 0 C10.23 0 20.46 0 31 0 C31 10.56 31 21.12 31 32 C29.02 32 27.04 32 25 32 C25.165 31.236875 25.33 30.47375 25.5 29.6875 C26.09145396 26.96403764 26.09145396 26.96403764 26 24 C26.01121265 22.63671449 26.02298551 21.27343354 26.03515625 19.91015625 C26.04445057 18.29427186 26.05355834 16.67838638 26.0625 15.0625 C26.07087891 14.25103516 26.07925781 13.43957031 26.08789062 12.60351562 C26.09111328 11.81783203 26.09433594 11.03214844 26.09765625 10.22265625 C26.10289307 9.50859619 26.10812988 8.79453613 26.11352539 8.05883789 C26.04551579 5.64725809 26.04551579 5.64725809 25 2 C16.75 1.67 8.5 1.34 0 1 C0 0.67 0 0.34 0 0 Z " fill="#E6D096" transform="translate(1024,1112)"/>
<path d="M0 0 C0.33 0 0.66 0 1 0 C1.00331015 0.61660429 1.00662029 1.23320858 1.01003075 1.86849785 C1.09117665 16.85726624 1.18324119 31.84592411 1.28752708 46.83454704 C1.33769397 54.08287308 1.38413629 61.33118757 1.421875 68.57958984 C1.45476935 74.89574473 1.49458618 81.2118111 1.54279006 87.52786839 C1.56808069 90.8735849 1.58985422 94.21924251 1.60334396 97.56502914 C1.62012445 101.2959246 1.64913947 105.02653285 1.68115234 108.75732422 C1.68331253 109.87222229 1.68547272 110.98712036 1.68769836 112.13580322 C1.70444359 113.65447495 1.70444359 113.65447495 1.7215271 115.2038269 C1.72705786 116.08690458 1.73258862 116.96998226 1.73828697 117.87981987 C1.80598935 120.21609155 1.80598935 120.21609155 4 122 C3.01 122 2.02 122 1 122 C1 132.56 1 143.12 1 154 C-1 152 -1 152 -1.13525391 149.01904297 C-1.05670166 147.14949951 -1.05670166 147.14949951 -0.9765625 145.2421875 C-0.95153656 144.57913605 -0.92651062 143.91608459 -0.90072632 143.23294067 C-0.81848733 141.11310985 -0.72191635 138.99420563 -0.625 136.875 C-0.56676418 135.43884006 -0.50946081 134.00264198 -0.453125 132.56640625 C-0.31290458 129.04376398 -0.159824 125.5218134 0 122 C-0.66 122 -1.32 122 -2 122 C-1.505 121.01 -1.505 121.01 -1 120 C-0.8956055 118.40381617 -0.85346936 116.80337823 -0.84178162 115.2038269 C-0.8319928 114.19137909 -0.82220398 113.17893127 -0.81211853 112.13580322 C-0.80636307 111.02090515 -0.8006076 109.90600708 -0.79467773 108.75732422 C-0.77982834 107.00124344 -0.77982834 107.00124344 -0.76467896 105.20968628 C-0.73845892 101.99504408 -0.71661018 98.78040726 -0.69667697 95.56572104 C-0.67483113 92.20777794 -0.6474356 88.84988031 -0.62062073 85.49197388 C-0.57067484 79.13135762 -0.52574306 72.77071614 -0.48259836 66.41005051 C-0.43324217 59.16948316 -0.37831806 51.92896142 -0.32291877 44.68843818 C-0.20906962 29.79233462 -0.10223699 14.89618812 0 0 Z " fill="#E3865F" transform="translate(603,1152)"/>
<path d="M0 0 C0.33 0 0.66 0 1 0 C1 20.79 1 41.58 1 63 C1.66 63.33 2.32 63.66 3 64 C2.34 64 1.68 64 1 64 C1 74.56 1 85.12 1 96 C0.67 96 0.34 96 0 96 C0 85.44 0 74.88 0 64 C-21.12 64 -42.24 64 -64 64 C-64 63.67 -64 63.34 -64 63 C-42.88 63 -21.76 63 0 63 C0 42.21 0 21.42 0 0 Z " fill="#2C3849" transform="translate(603,758)"/>
<path d="M0 0 C2 2 2 2 2.13525391 5.25634766 C2.09291915 6.64261545 2.03925704 8.02856619 1.9765625 9.4140625 C1.95153656 10.14370209 1.92651062 10.87334167 1.90072632 11.62509155 C1.81845785 13.95886232 1.72189707 16.29179522 1.625 18.625 C1.56676728 20.20569478 1.50946385 21.78642409 1.453125 23.3671875 C1.3146155 27.24545338 1.15680488 31.12225761 1 35 C-7.91 35 -16.82 35 -26 35 C-26 34.67 -26 34.34 -26 34 C-18.08 33.67 -10.16 33.34 -2 33 C-1.93941406 30.78539062 -1.87882813 28.57078125 -1.81640625 26.2890625 C-1.75462424 24.14775145 -1.69123351 22.00649366 -1.62768555 19.86523438 C-1.58433411 18.37537359 -1.54265916 16.88546305 -1.50268555 15.39550781 C-1.44498785 13.25570673 -1.38129245 11.11615615 -1.31640625 8.9765625 C-1.27974854 7.68830566 -1.24309082 6.40004883 -1.20532227 5.07275391 C-1 2 -1 2 0 0 Z " fill="#C7C8CA" transform="translate(538,980)"/>
<path d="M0 0 C3.3 0.33 6.6 0.66 10 1 C10 1.33 10 1.66 10 2 C14.95 2.33 19.9 2.66 25 3 C25 3.33 25 3.66 25 4 C17.08 4 9.16 4 1 4 C1 12.91 1 21.82 1 31 C0.67 31 0.34 31 0 31 C0 20.77 0 10.54 0 0 Z " fill="#253039" transform="translate(1119,1177)"/>
<path d="M0 0 C10.56 0 21.12 0 32 0 C32 0.33 32 0.66 32 1 C30.87972412 1.03758423 30.87972412 1.03758423 29.73681641 1.07592773 C26.36602733 1.19168213 22.99553217 1.31450128 19.625 1.4375 C18.449375 1.47681641 17.27375 1.51613281 16.0625 1.55664062 C14.94101563 1.59853516 13.81953125 1.64042969 12.6640625 1.68359375 C11.10872803 1.73858032 11.10872803 1.73858032 9.52197266 1.79467773 C7.00574834 1.84164223 7.00574834 1.84164223 5 3 C4.67 12.57 4.34 22.14 4 32 C3.67 32 3.34 32 3 32 C3 22.1 3 12.2 3 2 C2.01 2 1.02 2 0 2 C0 1.34 0 0.68 0 0 Z " fill="#1E1A39" transform="translate(1345,757)"/>
<path d="M0 0 C1.32 0 2.64 0 4 0 C4 10.56 4 21.12 4 32 C3.34 32 2.68 32 2 32 C2 22.1 2 12.2 2 2 C1.34 2 0.68 2 0 2 C0 1.34 0 0.68 0 0 Z " fill="#E6CF98" transform="translate(954,564)"/>
<path d="M0 0 C0.33 0.99 0.66 1.98 1 3 C14.86 3.495 14.86 3.495 29 4 C29 4.33 29 4.66 29 5 C24.56319547 5.22547184 20.12562853 5.42745053 15.6875 5.625 C14.42486328 5.68945312 13.16222656 5.75390625 11.86132812 5.8203125 C10.65283203 5.871875 9.44433594 5.9234375 8.19921875 5.9765625 C7.08377686 6.02893066 5.96833496 6.08129883 4.8190918 6.13525391 C2 6 2 6 -1 4 C-0.67 2.68 -0.34 1.36 0 0 Z " fill="#0E0C31" transform="translate(605,624)"/>
</svg>
